<svg width="48" height="49" viewBox="0 0 48 49" fill="none" xmlns="http://www.w3.org/2000/svg">
<path d="M4.00004 24.5H8.00004C7.99528 22.3974 8.40572 20.3146 9.2078 18.371C10.0099 16.4274 11.1878 14.6613 12.674 13.174C14.1296 11.7136 15.8567 10.5518 17.758 9.754C21.677 8.12586 26.0776 8.09643 30.018 9.672C30.0566 10.9669 30.5986 12.1958 31.5289 13.0974C32.4593 13.9989 33.7045 14.5021 35 14.5C37.772 14.5 40 12.272 40 9.5C40 6.728 37.772 4.5 35 4.5C33.622 4.5 32.376 5.052 31.474 5.95C26.612 4.004 21.028 4.034 16.204 6.068C13.8263 7.0674 11.6661 8.52046 9.84404 10.346C8.01769 12.167 6.5639 14.3266 5.56404 16.704C4.52644 19.1719 3.99461 21.8229 4.00004 24.5ZM38.746 30.744C37.944 32.648 36.792 34.36 35.326 35.826C33.86 37.292 32.148 38.444 30.242 39.246C26.3231 40.8741 21.9225 40.9036 17.982 39.328C17.9435 38.0331 17.4015 36.8042 16.4711 35.9026C15.5408 35.0011 14.2955 34.4979 13 34.5C10.228 34.5 8.00004 36.728 8.00004 39.5C8.00004 42.272 10.228 44.5 13 44.5C14.378 44.5 15.624 43.948 16.526 43.05C18.9011 44.0091 21.4387 44.5014 24 44.5C27.9331 44.5076 31.7808 43.3534 35.0603 41.1822C38.3398 39.0111 40.905 35.9197 42.434 32.296C43.473 29.8285 44.0055 27.1773 44 24.5H40C40.0051 26.6444 39.5786 28.7678 38.746 30.744Z" fill="white"/>
<path d="M24 15.424C18.996 15.424 14.924 19.496 14.924 24.5C14.924 29.504 18.996 33.576 24 33.576C29.004 33.576 33.076 29.504 33.076 24.5C33.076 19.496 29.004 15.424 24 15.424ZM24 29.576C21.202 29.576 18.924 27.298 18.924 24.5C18.924 21.702 21.202 19.424 24 19.424C26.798 19.424 29.076 21.702 29.076 24.5C29.076 27.298 26.798 29.576 24 29.576Z" fill="white"/>
</svg>
