<svg width="41" height="40" viewBox="0 0 41 40" fill="none" xmlns="http://www.w3.org/2000/svg">
<path d="M36.228 12.93C36.5095 11.9423 36.5705 10.9049 36.4067 9.89101C36.243 8.87715 35.8584 7.91166 35.2803 7.06283C34.7022 6.21399 33.9447 5.50254 33.0613 4.97881C32.1778 4.45508 31.1901 4.13186 30.168 4.032C29.7579 2.85523 28.992 1.83506 27.9766 1.11269C26.9611 0.390327 25.7462 0.00148816 24.5 0C23.0192 0.00501565 21.5932 0.56113 20.5 1.56C19.4068 0.56113 17.9808 0.00501565 16.5 0C13.898 0 11.68 1.662 10.85 4.03C9.82607 4.12736 8.8361 4.44884 7.95033 4.97166C7.06456 5.49447 6.3047 6.2058 5.72464 7.05518C5.14458 7.90456 4.75853 8.87118 4.5939 9.88647C4.42926 10.9018 4.49007 11.9408 4.772 12.93C3.48807 13.6131 2.413 14.631 1.66087 15.8758C0.908736 17.1205 0.507592 18.5457 0.5 20C0.5 22.15 1.356 24.172 2.844 25.664C2.61632 26.4218 2.50044 27.2087 2.5 28C2.5 31.914 5.324 35.18 9.112 35.868C9.6681 37.097 10.5661 38.1401 11.6988 38.8728C12.8314 39.6055 14.151 39.9968 15.5 40C17.458 40 19.228 39.186 20.5 37.882C21.1492 38.5517 21.9263 39.0843 22.7852 39.4481C23.6441 39.8119 24.5672 39.9996 25.5 40C26.8466 39.9975 28.164 39.6078 29.2953 38.8773C30.4265 38.1468 31.3237 37.1063 31.88 35.88C32.9959 35.6833 34.0574 35.2521 34.9944 34.6149C35.9314 33.9777 36.7225 33.149 37.3157 32.1835C37.9088 31.218 38.2904 30.1377 38.4352 29.0139C38.5801 27.8901 38.4849 26.7483 38.156 25.664C38.8996 24.9202 39.4894 24.0371 39.8916 23.0652C40.2937 22.0934 40.5005 21.0518 40.5 20C40.4924 18.5457 40.0913 17.1205 39.3391 15.8758C38.587 14.631 37.5119 13.6131 36.228 12.93ZM15.5 36C14.078 36 12.84 34.992 12.56 33.604L12.136 32H10.5C8.294 32 6.5 30.206 6.5 28C6.5 27.296 6.67 26.636 7.006 26.038L7.918 24.406L6.35 23.386C5.78357 23.0208 5.31755 22.5197 4.99441 21.9283C4.67128 21.3368 4.50131 20.6739 4.5 20C4.5 18.046 5.946 16.352 7.864 16.056L11.25 15.536L9.132 12.844C8.75482 12.3577 8.53608 11.7674 8.50536 11.1527C8.47465 10.5381 8.63344 9.92889 8.96027 9.40745C9.28709 8.88601 9.76618 8.47753 10.3327 8.23725C10.8993 7.99698 11.526 7.9365 12.128 8.064L14.5 8.414V6C14.5 5.46957 14.7107 4.96086 15.0858 4.58579C15.4609 4.21071 15.9696 4 16.5 4C17.0304 4 17.5391 4.21071 17.9142 4.58579C18.2893 4.96086 18.5 5.46957 18.5 6V33C18.5 34.654 17.154 36 15.5 36ZM34.65 23.384L33.082 24.404L33.994 26.036C34.33 26.636 34.5 27.296 34.5 28C34.5 30.206 32.706 32 30.4 32H28.764L28.44 33.604C28.3002 34.2805 27.9314 34.8882 27.3959 35.3246C26.8604 35.7611 26.1908 35.9996 25.5 36C23.846 36 22.5 34.654 22.5 33V6C22.5 4.896 23.396 4 24.5 4C25.604 4 26.5 4.896 26.5 6.1V8.514L28.872 8.064C29.474 7.9365 30.1007 7.99698 30.6673 8.23725C31.2338 8.47753 31.7129 8.88601 32.0397 9.40745C32.3666 9.92889 32.5254 10.5381 32.4946 11.1527C32.4639 11.7674 32.2452 12.3577 31.868 12.844L29.75 15.538L33.136 16.058C34.073 16.2097 34.9256 16.6894 35.5417 17.4114C36.1579 18.1334 36.4975 19.0508 36.5 20C36.5 21.366 35.808 22.63 34.65 23.384Z" fill="white"/>
</svg>
