<svg xmlns="http://www.w3.org/2000/svg" width="110.383" height="109.702" viewBox="0 0 110.383 109.702"><g id="Layer_1" data-name="Layer 1" transform="translate(0 0)"><path id="Path_1" data-name="Path 1" d="M1186.67,415.828V393.854c0-.736.084-.639-.636-.641-1.483,0-2.966,0-4.448,0-.4,0-.406-.007-.406-.395V382.3c0-.4.007-.4.4-.406h4.5c.675,0,.593.081.593-.573V365.1c0-.784-.1-.669.654-.67q12.088,0,24.176,0h.157c.512,0,.5-.071.5.51v16.585c0,.361.009.368.379.368q2.956,0,5.913,0c.123,0,.245,0,.368,0,.158-.006.216.074.209.223,0,.1,0,.209,0,.314v10.254c0,.1-.005.21,0,.314.009.157-.065.219-.216.213-.123,0-.245,0-.368,0h-5.86c-.419,0-.42.006-.429.434v.157q0,19.515.009,39.03a29.087,29.087,0,0,0,.368,5.262c.05.273.134.54.2.808a1.074,1.074,0,0,0,.776.773,9.994,9.994,0,0,0,2.208.384q1.458.14,2.925.138c.467,0,.468-.044.468.442v10.672c0,.448,0,.452-.459.452-3.646,0-7.291.03-10.937-.01-2.475-.028-4.953-.061-7.421-.284a20.335,20.335,0,0,1-5.822-1.136,13.458,13.458,0,0,1-5.411-3.816,8.758,8.758,0,0,1-1.971-4.864,95.21,95.21,0,0,1-.417-9.974c-.014-5.284,0-10.568,0-15.853Z" transform="translate(-1108.732 -342.077)" fill="#fff"></path><path id="Path_2" data-name="Path 2" d="M673.105,656.978V621.819c.009-.645-.074-.558.552-.558h25.066c.675,0,.575-.053.575.594v70.371c0,.692.088.618-.605.618H673.73c-.7,0-.625.1-.625-.652Q673.1,674.584,673.105,656.978Z" transform="translate(-631.816 -583.153)" fill="#fff"></path><path id="Path_3" data-name="Path 3" d="M36.689,364.217v-.849c0-.58.007-.507-.5-.51h-.157c-8.781-.206-14.867.234-16.522.332-6.379.4-10.7,2.311-12.409,5.029h0a7.36,7.36,0,0,0-1.484,3.524,36.689,36.689,0,0,0-.327,4.162c-.039,1.342-.045,2.685-.072,4.028-.009.442.078.436-.469.435H.452c-.518,0-.494-.045-.494.467v10.412c0,.436,0,.439.464.439H4.5c.705,0,.705,0,.705.73V449.6c0,.743-.061.635.643.635q12.062,0,24.124,0c.746,0,.656.112.656-.675v-57.5c.009-.368.01-.377.375-.378,1.256,0,2.515,0,3.768,0h1.465c.463,0,.439.034.435-.41V380.918c0-.1-.008-.21,0-.314.017-.188-.075-.245-.248-.236-.123.007-.245,0-.368,0H28.375c-.7,0-1.4-.008-2.093,0-.229,0-.3-.077-.3-.3.014-.907,0-1.814.025-2.72a4.944,4.944,0,0,1,.3-1.481,2.1,2.1,0,0,1,1.727-1.478,28.347,28.347,0,0,1,4.109-.372c1.375-.045,2.756-.038,4.133-.056.395,0,.4-.009.4-.4v-3.041h.006v-6.308Z" transform="translate(0.043 -340.552)" fill="#fff"></path><path id="Path_4" data-name="Path 4" d="M699.357,364.158c0-.58.007-.507-.505-.51H673.665c-.512,0-.5-.071-.5.51v7.158h0v3.3c0,.454,0,.454.448.459h25.2a2.471,2.471,0,0,1,.261,0c.239.026.307-.1.288-.31-.007-.069,0-.139,0-.209v-3.241h0Q699.357,367.736,699.357,364.158Z" transform="translate(-631.87 -341.342)" fill="#fff"></path><path id="Path_5" data-name="Path 5" d="M1221.275,45.843c.139,1.489.274,2.944.414,4.4a3.475,3.475,0,0,0,.094.466c.151.627.328.859,1.173.876a2.752,2.752,0,0,0,.576-.075,1.11,1.11,0,0,0,1.006-1.116,8.788,8.788,0,0,0-.017-1.481c-.048-.613-.1-1.231-.169-1.844-.03-.262.012-.385.312-.4.967-.061,1.933-.155,2.9-.239,1.458-.126,2.916-.252,4.373-.386.491-.045.51-.052.537.444.042.775.133,1.545.123,2.325a4.2,4.2,0,0,1-1.016,2.714,8.219,8.219,0,0,1-4.194,2.626,20.268,20.268,0,0,1-4.109.683,21.027,21.027,0,0,1-2.592.065,12.97,12.97,0,0,1-4.1-.723,6.955,6.955,0,0,1-1.186-.579,4.868,4.868,0,0,1-2.317-3.672c-.2-1.434-.281-2.879-.419-4.318-.082-.859-.159-1.722-.218-2.584a7.621,7.621,0,0,1,.108-1.95,4.643,4.643,0,0,1,1.828-2.938,10.874,10.874,0,0,1,4.042-1.76,21.849,21.849,0,0,1,6.256-.526,11.86,11.86,0,0,1,3.557.736,5.338,5.338,0,0,1,3.611,4.146,35.3,35.3,0,0,1,.435,3.783c.025.249-.061.332-.316.353q-3.058.245-6.115.524c-1.457.129-2.914.266-4.371.4A1.9,1.9,0,0,0,1221.275,45.843Zm-.429-5.329h-.01q.066.894.13,1.787c0,.053.008.105.017.157.053.34.075.36.394.331.613-.057,1.227-.123,1.84-.169.2-.015.281-.087.262-.289-.049-.507-.076-1.017-.137-1.522a5.162,5.162,0,0,0-.223-1.082.817.817,0,0,0-.829-.6,4.026,4.026,0,0,0-.421.015c-.78.078-1,.319-1.019,1.112,0,.088,0,.178,0,.264Z" transform="translate(-1138.063 -33.62)" fill="#cd2c1e"></path><path id="Path_6" data-name="Path 6" d="M22.25,155.6a6.448,6.448,0,0,1-2.729,3.289,9.657,9.657,0,0,1-2.421,1.043,21.5,21.5,0,0,1-4.059.675,24.678,24.678,0,0,1-3.223.072,12.643,12.643,0,0,1-1.595-.293,8.267,8.267,0,0,1-2.451-.956,5.135,5.135,0,0,1-2.247-3.389,20.2,20.2,0,0,1-.4-3.091c-.139-1.546-.259-3.094-.368-4.642a7.956,7.956,0,0,1,.093-1.793A3.651,3.651,0,0,1,4.34,144.1a11.746,11.746,0,0,1,4.487-2.047,20.236,20.236,0,0,1,5.778-.51,12.2,12.2,0,0,1,4.055.906,4.638,4.638,0,0,1,2.9,3.275,19.238,19.238,0,0,1,.381,1.971c.036.245-.056.319-.264.337-.632.055-1.265.109-1.9.165q-2.687.239-5.374.481l-.1.01c-.381.031-.386.032-.422-.34-.061-.65-.119-1.3-.178-1.95a3.6,3.6,0,0,0-.218-.978.9.9,0,0,0-.8-.6,2.11,2.11,0,0,0-.58.021c-.686.123-.894.368-.926,1.068a19.08,19.08,0,0,0,.147,2.321c.11,1.442.245,2.883.377,4.322.1,1.054.2,2.107.3,3.159a2.22,2.22,0,0,0,.061.364,1.391,1.391,0,0,0,1.823,1.132,1.061,1.061,0,0,0,.981-1.068,11.973,11.973,0,0,0-.061-2.218c-.031-.368-.042-.741-.1-1.1-.034-.239.061-.319.271-.337.474-.043.948-.09,1.422-.129q2.187-.184,4.374-.362c.4-.034.81-.061,1.212-.109.238-.029.3.066.317.286a15.078,15.078,0,0,1,0,3.169A2.08,2.08,0,0,1,22.25,155.6Z" transform="translate(-2.574 -132.829)" fill="#cd2c1e"></path><path id="Path_7" data-name="Path 7" d="M352.365,73.864c.04.509.11,1.016.156,1.524.028.312,0,.331-.354.364-.772.072-1.544.144-2.317.213q-2.368.209-4.738.413c-.351.03-.7.037-1.053.085-.233.033-.312-.034-.329-.267-.057-.755-.132-1.509-.2-2.263-.028-.3-.067-.595-.083-.894-.011-.209-.015-.438-.037-.664-.084-.842-.155-1.686-.229-2.529q-.25-2.793-.5-5.586c-.167-1.879-.339-3.759-.5-5.638q-.178-2.03-.343-4.06c-.032-.4-.022-.408.361-.454.507-.061,1.017-.1,1.526-.147l6.27-.542q.105-.009.212-.013c.375-.012.378-.012.415.355.074.754.147,1.509.213,2.265q.429,4.848.848,9.7.283,3.268.552,6.537C352.24,72.382,352.332,73.444,352.365,73.864Z" transform="translate(-320.855 -50.127)" fill="#cd2c1e"></path><path id="Path_8" data-name="Path 8" d="M1577.265,2.978c.123-.166.25-.332.376-.5a6.689,6.689,0,0,1,4.408-2.477c.222-.037.278.068.292.256.026.352.061.7.093,1.055.141,1.6.274,3.2.429,4.8.026.273-.065.329-.307.343a11.033,11.033,0,0,0-2.442.437,3.241,3.241,0,0,0-1.505.845,1.491,1.491,0,0,0-.413.838,8.468,8.468,0,0,0-.029,1.744c.179,2.676.452,5.344.686,8.016.061.678.065.689-.587.749-1.227.113-2.46.211-3.69.317-1.3.112-2.6.218-3.9.349-.245.025-.312-.048-.329-.264-.044-.545-.1-1.089-.148-1.635q-.394-4.561-.787-9.123c-.2-2.231-.4-4.462-.6-6.693-.01-.105,0-.212-.016-.317-.02-.184.056-.241.237-.255.613-.048,1.227-.119,1.84-.174q3.031-.266,6.062-.526c.34-.029.353-.025.342.332-.02.617-.056,1.233-.087,1.85Z" transform="translate(-1472.566 0.002)" fill="#cd2c1e"></path><path id="Path_9" data-name="Path 9" d="M548.223,112.353a8.854,8.854,0,0,1-2.24-1.732,6.415,6.415,0,0,1-1.043-3.343c-.2-1.877-.339-3.759-.5-5.643a9.343,9.343,0,0,1,.034-1.955,4.762,4.762,0,0,1,2.242-3.543,11.648,11.648,0,0,1,4.065-1.588,21.724,21.724,0,0,1,6.1-.417,11.991,11.991,0,0,1,3.446.756,5.4,5.4,0,0,1,3.55,4.382c.214,1.184.274,2.382.388,3.576.021.229-.088.265-.271.28-.791.066-1.582.142-2.373.212q-2.95.259-5.9.513c-.685.061-1.372.105-2.057.171-.4.038-.408.051-.374.448q.165,1.95.346,3.9a3.6,3.6,0,0,0,.192.876.814.814,0,0,0,.695.572,2.488,2.488,0,0,0,.368.034c1.184-.015,1.672-.483,1.656-1.689-.013-.827-.123-1.653-.184-2.48-.053-.712-.048-.7.637-.763,1.915-.166,3.829-.342,5.744-.512.456-.04.914-.075,1.37-.116.181-.017.3.01.312.239.05.862.136,1.722.134,2.589a4.04,4.04,0,0,1-1.143,2.821,6.846,6.846,0,0,1-.8.814A10.41,10.41,0,0,1,557.8,112.8a28.189,28.189,0,0,1-4.95.405,13.443,13.443,0,0,1-3.111-.423C549.222,112.654,548.736,112.531,548.223,112.353Zm4.792-11.285c.753-.061,1.453-.123,2.153-.173.184-.013.291-.054.274-.278a17.678,17.678,0,0,0-.259-2.3c-.162-.758-.454-.958-1.227-.91-.883.055-1.16.32-1.143,1.211a18.733,18.733,0,0,0,.2,2.451Z" transform="translate(-511.013 -88.305)" fill="#cd2c1e"></path><path id="Path_10" data-name="Path 10" d="M885.837,77.235c-.841.079-1.682.161-2.523.236-1.457.131-4.9.415-5.476.472-.232.023-.323-.05-.377-.252-.041-.151-.238-.77-.292-.935l-5.233-15.922c-.082-.245-.156-.5-.245-.8.5-.052.945-.1,1.392-.143q2.715-.231,5.43-.451c.255-.02.546-.2.759-.006.175.159.165.454.229.691q1.575,5.79,3.149,11.581a1.335,1.335,0,0,0,.2.518,17.971,17.971,0,0,0,.163-2.343c.1-2.7.188-5.4.29-8.1.031-.81.106-1.619.143-2.429.013-.288.142-.388.415-.409.773-.061,1.545-.142,2.318-.209q2.133-.184,4.268-.355c.19-.015.381,0,.6,0a9.4,9.4,0,0,1-.155,1.524q-.675,5.378-1.362,10.755c-.245,1.923-.478,3.849-.748,5.769-.09.637.04.5-.593.576C887.439,77.1,885.871,77.246,885.837,77.235Z" transform="translate(-818.224 -54.798)" fill="#cd2c1e"></path></g></svg>