<svg width="48" height="49" viewBox="0 0 48 49" fill="none" xmlns="http://www.w3.org/2000/svg">
<path d="M43.1962 22.6282C42.9554 22.4465 42.677 22.3213 42.3813 22.2618C42.0857 22.2022 41.7804 22.2099 41.4882 22.2842C41.0034 22.4197 40.5034 22.4922 40.0002 22.5002C36.6922 22.5002 34.0002 19.8082 33.9942 16.6262C34.0042 16.5582 34.0262 16.3542 34.0282 16.2862C34.0412 15.9736 33.9806 15.6622 33.8511 15.3773C33.7216 15.0924 33.527 14.8419 33.2829 14.6461C33.0388 14.4502 32.7521 14.3146 32.4459 14.25C32.1397 14.1854 31.8226 14.1937 31.5202 14.2742C31.0254 14.4152 30.5145 14.4912 30.0002 14.5002C26.6922 14.5002 24.0002 11.8082 24.0002 8.50023C24.0002 8.06623 24.0622 7.61223 24.1982 7.06823C24.2751 6.75771 24.2765 6.43326 24.2022 6.1221C24.1278 5.81094 23.9799 5.52216 23.7709 5.27999C23.5618 5.03783 23.2977 4.84935 23.0007 4.73037C22.7038 4.61139 22.3826 4.56539 22.0642 4.59623C17.1111 5.05787 12.5102 7.35676 9.16706 11.0404C5.82392 14.7241 3.98068 19.5257 4.00015 24.5002C4.00015 35.5282 12.9722 44.5002 24.0002 44.5002C35.0282 44.5002 44.0002 35.5282 44.0002 24.5002C44.0002 24.4022 43.9942 24.3062 43.9862 24.1802C43.9794 23.8788 43.9049 23.5828 43.7682 23.3141C43.6314 23.0455 43.4359 22.811 43.1962 22.6282ZM24.0002 40.5002C15.1782 40.5002 8.00015 33.3222 8.00015 24.5002C7.98588 20.9468 9.16056 17.4907 11.3373 14.6819C13.514 11.8732 16.5676 9.87317 20.0122 9.00023C20.1433 11.5617 21.2525 13.9752 23.1109 15.7428C24.9694 17.5104 27.4353 18.4974 30.0002 18.5002L30.2022 18.4982C30.6611 20.7347 31.8706 22.7473 33.63 24.2023C35.3894 25.6572 37.5932 26.4673 39.8762 26.4982C38.8882 34.3822 32.1462 40.5002 24.0002 40.5002Z" fill="black"/>
<path d="M25.0001 26.5002C26.657 26.5002 28.0001 25.1571 28.0001 23.5002C28.0001 21.8434 26.657 20.5002 25.0001 20.5002C23.3433 20.5002 22.0001 21.8434 22.0001 23.5002C22.0001 25.1571 23.3433 26.5002 25.0001 26.5002Z" fill="black"/>
<path d="M17.0001 20.5002C18.657 20.5002 20.0001 19.1571 20.0001 17.5002C20.0001 15.8434 18.657 14.5002 17.0001 14.5002C15.3433 14.5002 14.0001 15.8434 14.0001 17.5002C14.0001 19.1571 15.3433 20.5002 17.0001 20.5002Z" fill="black"/>
<path d="M15.0001 28.5002C16.657 28.5002 18.0001 27.1571 18.0001 25.5002C18.0001 23.8434 16.657 22.5002 15.0001 22.5002C13.3433 22.5002 12.0001 23.8434 12.0001 25.5002C12.0001 27.1571 13.3433 28.5002 15.0001 28.5002Z" fill="black"/>
<path d="M31.0001 34.5002C32.657 34.5002 34.0001 33.1571 34.0001 31.5002C34.0001 29.8434 32.657 28.5002 31.0001 28.5002C29.3433 28.5002 28.0001 29.8434 28.0001 31.5002C28.0001 33.1571 29.3433 34.5002 31.0001 34.5002Z" fill="black"/>
<path d="M21.0001 36.5002C22.657 36.5002 24.0001 35.1571 24.0001 33.5002C24.0001 31.8434 22.657 30.5002 21.0001 30.5002C19.3433 30.5002 18.0001 31.8434 18.0001 33.5002C18.0001 35.1571 19.3433 36.5002 21.0001 36.5002Z" fill="black"/>
</svg>
