<svg width="48" height="49" viewBox="0 0 48 49" fill="none" xmlns="http://www.w3.org/2000/svg">
<path d="M29.366 30.1559C28.6349 30.8846 27.7715 31.467 26.822 31.8719C25.1126 32.5936 23.2055 32.6989 21.4271 32.17C19.6486 31.641 18.1091 30.5105 17.072 28.9719L13.756 31.2099C14.6209 32.4862 15.7212 33.5858 16.998 34.4499C18.2973 35.3286 19.7572 35.9423 21.294 36.2559C23.672 36.7401 26.1407 36.4961 28.378 35.5559C29.8018 34.9517 31.0965 34.0799 32.192 32.9879C32.736 32.4459 33.232 31.8459 33.66 31.2099L30.344 28.9719C30.0553 29.396 29.7279 29.7924 29.366 30.1559Z" fill="black"/>
<path d="M24 4.5C12.972 4.5 4 13.472 4 24.5C4 35.528 12.972 44.5 24 44.5C35.028 44.5 44 35.528 44 24.5C44 13.472 35.028 4.5 24 4.5ZM24 8.5C29.906 8.5 35.062 11.726 37.836 16.5H10.164C12.938 11.726 18.094 8.5 24 8.5ZM24 40.5C15.178 40.5 8 33.322 8 24.5C8 23.118 8.196 21.782 8.528 20.5H10V22.5C10 23.5609 10.4214 24.5783 11.1716 25.3284C11.9217 26.0786 12.9391 26.5 14 26.5H18C19.0609 26.5 20.0783 26.0786 20.8284 25.3284C21.5786 24.5783 22 23.5609 22 22.5H26C26 23.5609 26.4214 24.5783 27.1716 25.3284C27.9217 26.0786 28.9391 26.5 30 26.5H34C35.0609 26.5 36.0783 26.0786 36.8284 25.3284C37.5786 24.5783 38 23.5609 38 22.5V20.5H39.472C39.804 21.782 40 23.118 40 24.5C40 33.322 32.822 40.5 24 40.5Z" fill="black"/>
</svg>
