<svg width="48" height="48" viewBox="0 0 48 48" fill="none" xmlns="http://www.w3.org/2000/svg">
<path d="M24 44C34.842 44 44 34.842 44 24C44 13.158 34.842 4 24 4C13.158 4 4 13.158 4 24C4 34.842 13.158 44 24 44ZM24 8C32.674 8 40 15.326 40 24C40 32.674 32.674 40 24 40C15.326 40 8 32.674 8 24C8 15.326 15.326 8 24 8Z" fill="white"/>
<path d="M24 34C25.802 34 29.162 33.664 31.414 31.416L28.586 28.584C27.7 29.47 25.984 30 24 30C20.748 30 18 27.252 18 24C18 20.748 20.748 18 24 18C25.986 18 27.702 18.53 28.586 19.414L31.414 16.586C29.164 14.336 25.802 14 24 14C18.486 14 14 18.486 14 24C14 29.514 18.486 34 24 34Z" fill="white"/>
</svg>
