<svg version="1.2" xmlns="http://www.w3.org/2000/svg" viewBox="0 0 48 48" width="48" height="48">
	<title>down-arrow-svg</title>
	<style>
		.s0 { opacity: 0;fill: #000000 } 
		.s1 { fill: #ffffff } 
	</style>
	<path id="fill" class="s0" d="m42.2 12l-18.5 25-18.4-25z"/>
	<path id="border" fill-rule="evenodd" class="s1" d="m44 12.1q0 0.6-0.4 1l-18 26q-0.2 0.4-0.7 0.7-0.4 0.2-0.9 0.2-0.5 0-0.9-0.2-0.5-0.3-0.7-0.7l-18-26q-0.4-0.4-0.4-1 0-0.5 0.2-1 0.3-0.5 0.8-0.8 0.4-0.3 1-0.3h36q0.6 0 1 0.3 0.5 0.3 0.8 0.8 0.2 0.5 0.2 1zm-5.8 1.9h-28.4l14.2 20.5z"/>
</svg>