<svg width="49" height="49" viewBox="0 0 49 49" fill="none" xmlns="http://www.w3.org/2000/svg">
<path d="M12.5 10.9607V38.9607H18.5V26.9607H30.5V38.9607H36.5V10.9607H30.5V22.9607H18.5V10.9607H12.5ZM6.5 30.9607C6.5 31.4911 6.71071 31.9998 7.08579 32.3749C7.46086 32.75 7.96957 32.9607 8.5 32.9607H10.5V16.9607H8.5C7.96957 16.9607 7.46086 17.1714 7.08579 17.5465C6.71071 17.9216 6.5 18.4303 6.5 18.9607V22.9607H4.5V26.9607H6.5V30.9607ZM42.5 18.9607C42.5 18.4303 42.2893 17.9216 41.9142 17.5465C41.5391 17.1714 41.0304 16.9607 40.5 16.9607H38.5V32.9607H40.5C41.0304 32.9607 41.5391 32.75 41.9142 32.3749C42.2893 31.9998 42.5 31.4911 42.5 30.9607V26.9607H44.5V22.9607H42.5V18.9607Z" fill="white"/>
</svg>
