<svg width="49" height="49" viewBox="0 0 49 49" fill="none" xmlns="http://www.w3.org/2000/svg">
<path d="M27.2614 12.5C30.1214 12.5 32.8194 13.726 34.8594 15.952L37.8094 13.248C35.0014 10.186 31.2554 8.5 27.2614 8.5C23.2654 8.5 19.5214 10.186 16.7174 13.25C15.3206 14.7772 14.232 16.5599 13.5114 18.5H8.33337V22.5H12.5614C12.4854 23.16 12.4334 23.826 12.4334 24.5C12.4334 25.174 12.4854 25.84 12.5614 26.5H8.33337V30.5H13.5114C14.2354 32.44 15.3134 34.222 16.7174 35.752C19.5214 38.814 23.2654 40.5 27.2614 40.5C31.2554 40.5 35.0014 38.814 37.8074 35.752L34.8574 33.048C32.8194 35.274 30.1214 36.5 27.2614 36.5C24.4014 36.5 21.7054 35.276 19.6654 33.048C18.9805 32.2774 18.399 31.4208 17.9354 30.5H26.3334V26.5H16.6114C16.5114 25.844 16.4334 25.18 16.4334 24.5C16.4334 23.82 16.5114 23.156 16.6114 22.5H26.3334V18.5H17.9354C18.4154 17.586 18.9674 16.714 19.6654 15.952C21.7054 13.726 24.4014 12.5 27.2614 12.5Z" fill="black"/>
</svg>
