<svg width="24" height="24" viewBox="0 0 24 24" fill="none" xmlns="http://www.w3.org/2000/svg">
<path d="M12.0007 6C13.1053 6 14.0007 5.10457 14.0007 4C14.0007 2.89543 13.1053 2 12.0007 2C10.8962 2 10.0007 2.89543 10.0007 4C10.0007 5.10457 10.8962 6 12.0007 6Z" fill="white"/>
<path d="M14.9487 7.684C14.8828 7.48471 14.7557 7.3113 14.5855 7.18848C14.4153 7.06567 14.2106 6.9997 14.0007 7H10.0007C9.79087 6.99986 9.5863 7.06588 9.41611 7.18867C9.24591 7.31147 9.11876 7.48479 9.05273 7.684L7.05273 13.684L8.82773 14.277L8.00073 18H10.0007V22H14.0007V18H16.0007L15.1737 14.276L16.9487 13.683L14.9487 7.684Z" fill="white"/>
</svg>
