<svg width="48" height="48" viewBox="0 0 48 48" fill="none" xmlns="http://www.w3.org/2000/svg">
<path d="M24 4C12.972 4 4 12.972 4 24C4 35.028 12.972 44 24 44C35.028 44 44 35.028 44 24C44 12.972 35.028 4 24 4ZM39.862 22H34.334C34.0873 17.6225 32.8626 13.3559 30.75 9.514C33.1984 10.6581 35.3177 12.4028 36.9108 14.5858C38.504 16.7688 39.5192 19.3193 39.862 22ZM25.06 8.054C27.13 10.782 29.914 15.614 30.314 22H18.06C18.338 16.808 20.048 11.944 22.962 8.052C23.306 8.032 23.65 8 24 8C24.358 8 24.708 8.032 25.06 8.054ZM17.376 9.454C15.408 13.236 14.272 17.524 14.06 22H8.138C8.48354 19.2957 9.51327 16.7242 11.1298 14.5288C12.7463 12.3335 14.8962 10.5868 17.376 9.454ZM8.138 26H14.086C14.358 30.758 15.416 34.956 17.198 38.46C14.7624 37.3119 12.6555 35.5684 11.0719 33.3906C9.48838 31.2128 8.47933 28.6709 8.138 26ZM22.9 39.946C20.098 36.55 18.444 31.792 18.082 26H30.308C29.892 31.546 28.074 36.392 25.102 39.944C24.738 39.968 24.374 40 24 40C23.628 40 23.266 39.968 22.9 39.946ZM30.922 38.402C32.832 34.814 33.998 30.6 34.304 26H39.86C39.5225 28.6486 38.5279 31.1706 36.9669 33.3367C35.4058 35.5028 33.3278 37.244 30.922 38.402Z" fill="black"/>
</svg>
