<svg width="48" height="48" viewBox="0 0 48 48" fill="none" xmlns="http://www.w3.org/2000/svg">
<path d="M24 44C31.718 44 38 37.718 38 30C38 22.282 31.718 16 24 16C16.28 16 10 22.282 10 30C10 37.718 16.28 44 24 44ZM24 20C29.514 20 34 24.486 34 30C34 35.514 29.514 40 24 40C18.486 40 14 35.514 14 30C14 24.486 18.486 20 24 20ZM22 4H14V15.036C16.3934 13.4344 19.1376 12.4335 22 12.118V4ZM34 4H26V12.118C28.8624 12.4335 31.6066 13.4344 34 15.036V4Z" fill="#FFD700"/>
<path d="M20.038 31.622L19.102 37.074L24 34.5L28.898 37.074L27.962 31.622L31.926 27.758L26.45 26.962L24 22L21.55 26.962L16.074 27.758L20.038 31.622Z" fill="#FFD700"/>
</svg>
