<svg width="38" height="34" viewBox="0 0 38 34" fill="none" xmlns="http://www.w3.org/2000/svg">
<path d="M29.208 16.0959C30.4261 14.0201 30.9522 11.6106 30.71 9.21594C30.352 5.64794 28.36 2.49394 25.104 0.335938L22.894 3.66794C25.132 5.15194 26.494 7.26594 26.73 9.61594C26.8388 10.7081 26.7029 11.8109 26.332 12.8439C25.9611 13.8769 25.3647 14.8144 24.586 15.5879L22.202 17.9719L25.438 18.9219C33.902 21.4019 34 29.9139 34 29.9999H38C38 26.4219 36.088 19.4299 29.208 16.0959Z" fill="white"/>
<path d="M15 18C19.412 18 23 14.412 23 10C23 5.588 19.412 2 15 2C10.588 2 7 5.588 7 10C7 14.412 10.588 18 15 18ZM15 6C17.206 6 19 7.794 19 10C19 12.206 17.206 14 15 14C12.794 14 11 12.206 11 10C11 7.794 12.794 6 15 6ZM18 20H12C5.382 20 0 25.382 0 32V34H4V32C4 27.588 7.588 24 12 24H18C22.412 24 26 27.588 26 32V34H30V32C30 25.382 24.618 20 18 20Z" fill="white"/>
</svg>
