<svg width="48" height="49" viewBox="0 0 48 49" fill="none" xmlns="http://www.w3.org/2000/svg">
<path d="M24.558 18.166L24 18.724L23.442 18.166C22.9313 17.649 22.3231 17.2385 21.6526 16.9583C20.9821 16.6781 20.2626 16.5339 19.536 16.5339C18.8093 16.5339 18.0898 16.6781 17.4193 16.9583C16.7488 17.2385 16.1406 17.649 15.63 18.166C15.1126 18.6767 14.7019 19.285 14.4215 19.9557C14.1412 20.6264 13.9968 21.3461 13.9968 22.073C13.9968 22.7999 14.1412 23.5196 14.4215 24.1903C14.7019 24.861 15.1126 25.4693 15.63 25.98L24 34.352L32.372 25.98C32.8893 25.4693 33.3 24.861 33.5804 24.1903C33.8607 23.5196 34.0051 22.7999 34.0051 22.073C34.0051 21.3461 33.8607 20.6264 33.5804 19.9557C33.3 19.285 32.8893 18.6767 32.372 18.166C31.8611 17.6489 31.2528 17.2384 30.5821 16.9582C29.9114 16.678 29.1918 16.5337 28.465 16.5337C27.7381 16.5337 27.0185 16.678 26.3478 16.9582C25.6772 17.2384 25.0688 17.6489 24.558 18.166Z" fill="white"/>
<path d="M24 4.5C12.972 4.5 4 13.472 4 24.5C4 35.528 12.972 44.5 24 44.5C35.028 44.5 44 35.528 44 24.5C44 13.472 35.028 4.5 24 4.5ZM24 40.5C15.178 40.5 8 33.322 8 24.5C8 15.678 15.178 8.5 24 8.5C32.822 8.5 40 15.678 40 24.5C40 33.322 32.822 40.5 24 40.5Z" fill="white"/>
</svg>
