<svg width="41" height="28" viewBox="0 0 41 28" fill="none" xmlns="http://www.w3.org/2000/svg">
<path d="M30.44 1.51403C30.3356 1.09368 30.0975 0.71864 29.7614 0.445389C29.4254 0.172138 29.0097 0.0154773 28.5769 -0.000995159C28.1441 -0.0174676 27.7177 0.10714 27.3618 0.354058C27.006 0.600977 26.74 0.956834 26.604 1.36803L20.232 20.476L14.328 7.18803C14.1673 6.82965 13.9047 6.52641 13.5731 6.31599C13.2414 6.10557 12.8552 5.99725 12.4625 6.0045C12.0698 6.01174 11.6879 6.13423 11.3642 6.35674C11.0406 6.57925 10.7894 6.89196 10.642 7.25603L7.146 16H0.5V20H7.146C8.792 20 10.25 19.012 10.858 17.486L12.596 13.142L18.67 26.812C18.994 27.538 19.712 28 20.5 28L20.596 27.998C20.9989 27.9789 21.3866 27.8381 21.7079 27.5943C22.0292 27.3504 22.2691 27.0149 22.396 26.632L28.224 9.14803L30.182 16.97C30.3967 17.8362 30.8956 18.6055 31.599 19.1547C32.3024 19.704 33.1696 20.0016 34.062 20H40.5V16H34.06L30.44 1.51403Z" fill="white"/>
</svg>
