<svg width="48" height="48" viewBox="0 0 48 48" fill="none" xmlns="http://www.w3.org/2000/svg">
<path d="M19.4301 24C21.7321 24 23.4301 22.302 23.4301 20C23.4301 17.698 21.7321 16 19.4301 16C17.1281 16 15.4301 17.698 15.4301 20C15.4301 22.302 17.1261 24 19.4301 24Z" fill="black"/>
<path d="M40 8H8C5.794 8 4 9.682 4 11.75V36.25C4 38.318 5.794 40 8 40H40C42.206 40 44 38.318 44 36.25V11.75C44 9.682 42.206 8 40 8ZM40 36L8 35.978V12L40 12.022V36Z" fill="black"/>
<path d="M28 18H36V22H28V18ZM30 26H36V30H30V26ZM26.86 31.072C26.86 28.324 23.508 25.5 19.43 25.5C15.352 25.5 12 28.324 12 31.072V32H26.86V31.072Z" fill="black"/>
</svg>
