<svg width="49" height="49" viewBox="0 0 49 49" fill="none" xmlns="http://www.w3.org/2000/svg">
<path d="M34.6667 14.5C30.4787 14.5 27.4447 17.634 24.6647 21.192C21.8847 17.634 18.8527 14.5 14.6667 14.5C9.15269 14.5 4.66669 18.986 4.66669 24.5C4.66347 25.8123 4.91961 27.1122 5.42037 28.3252C5.92114 29.5381 6.65667 30.6402 7.58469 31.568C8.50903 32.5 9.60928 33.2391 10.8216 33.7424C12.0339 34.2457 13.3341 34.5032 14.6467 34.5H14.6707C18.8487 34.49 21.8807 31.356 24.6627 27.798C27.4447 31.362 30.4787 34.5 34.6667 34.5C40.1807 34.5 44.6667 30.014 44.6667 24.5C44.6667 18.986 40.1807 14.5 34.6667 14.5ZM14.6627 30.5L14.6467 32.5V30.5C13.0487 30.5 11.5467 29.876 10.4187 28.744C9.58268 27.9031 9.01417 26.8337 8.78476 25.6704C8.55535 24.5071 8.67529 23.3019 9.12948 22.2066C9.58368 21.1113 10.3518 20.1749 11.3372 19.5153C12.3225 18.8558 13.481 18.5025 14.6667 18.5C17.3267 18.5 19.7867 21.376 22.1587 24.496C19.7827 27.614 17.3227 30.494 14.6627 30.5ZM34.6667 30.5C32.0067 30.5 29.5447 27.62 27.1687 24.496C29.5427 21.376 32.0027 18.5 34.6667 18.5C37.9747 18.5 40.6667 21.192 40.6667 24.5C40.6667 27.808 37.9747 30.5 34.6667 30.5Z" fill="black"/>
</svg>
