<svg width="49" height="48" viewBox="0 0 49 48" fill="none" xmlns="http://www.w3.org/2000/svg">
<path d="M6.5 6V40C6.5 40.5304 6.71071 41.0391 7.08579 41.4142C7.46086 41.7893 7.96957 42 8.5 42H42.5V38H10.5V6H6.5Z" fill="white"/>
<path d="M31.0861 29.4139C31.2716 29.5998 31.492 29.7473 31.7347 29.8479C31.9773 29.9485 32.2374 30.0003 32.5001 30.0003C32.7627 30.0003 33.0228 29.9485 33.2654 29.8479C33.5081 29.7473 33.7285 29.5998 33.9141 29.4139L43.9141 19.4139L41.0861 16.5859L32.5001 25.1719L27.9141 20.5859C27.7285 20.4 27.5081 20.2526 27.2654 20.1519C27.0228 20.0513 26.7627 19.9995 26.5001 19.9995C26.2374 19.9995 25.9773 20.0513 25.7347 20.1519C25.492 20.2526 25.2716 20.4 25.0861 20.5859L15.0861 30.5859L17.9141 33.4139L26.5001 24.8279L31.0861 29.4139Z" fill="white"/>
</svg>
