<svg version="1.2" xmlns="http://www.w3.org/2000/svg" viewBox="0 0 1773 1773" width="1773" height="1773">
	<title>niko1_Logo_minimalist_fit_Man_and_woman_vector_art_minimal_man_93cf337b-b8c6-4a6a-914e-c1430a9c1cb3-svg (1) (1)-svg</title>
	<style>
		.s0 { fill: none;stroke: #005457;stroke-width: 2 } 
		.s1 { fill: none;stroke: #767676;stroke-width: 2 } 
		.s2 { fill: none;stroke: #76c9cc;stroke-width: 2 } 
		.s3 { fill: #000000 } 
		.s4 { fill: #ebebeb } 
		.s5 { fill: #ff5043 } 
	</style>
	<g id="Layer">
		<path id="Layer" fill-rule="evenodd" class="s0" d="m489.2 719c-11.3 35.8-28.3 66.7-49.2 96q-23.6 33.1-51.7 62.3-38.3 39.7-51.6 53.4c-18.8 19.4-35 41.8-43.8 66.5q-15.1 42.1 0.5 83.9 3.2 8.6 8.5 18.1c12.9 23.6 29.5 44.5 48.9 63.5 25.7 24.9 55 48.4 84.9 69.7q33.2 23.6 68.8 47.2 38.3 25.4 54 36.6 32.3 22.9 65.2 49.6 8.3 6.8 15.2 12.9 30.1 26.4 51.5 49.9 25.7 28.4 51.2 56.8"/>
		<path id="Layer" fill-rule="evenodd" class="s1" d="m741.6 1485.4l32.1 42.8"/>
		<path id="Layer" fill-rule="evenodd" class="s0" d="m773.7 1528.3q0.9 2.5 3.3 4.6 0.2 0.1 0.3 0.2 0.2 0 0.3 0 0.2 0 0.3-0.1 0.2-0.1 0.3-0.2l7-9.8"/>
		<path id="Layer" fill-rule="evenodd" class="s1" d="m785.2 1523q24.2-28.6 30.9-65.1 4.6-25.4 3.1-49.6-2-34.1-21-64.2c-0.9-1.4-1.1-2.2-1-3.6q2-19.7 2.5-22.4 0.3-1.4 0.5-2.9 0.2-1.2 0.8-2.8c2.2-6.6 6-16.8 7.8-24.7q4.3-18.9 4.3-33.7 0-43.9-18.2-86.9-9.9-23.4-21.5-43.8-25-44.1-56.4-85.5-14-18.4-59-78.4-4.4-6-5.2-7.5-2-4.2-1.7-9.1 2.4-43.8 3.9-60.5 1.9-22.9 7-40.3 2.1-7.4 7.1-15.6c1-1.5 2.3-2.8 4.2-2.4q14.2 2.5 30 8.5 2.5 1 20.8 5.2 0.1 0 12.4 2.6c13.6 2.9 27.8 4.8 40.7-0.1q17.4-6.7 20.2-26.3c1.5-10 0.6-20.9-0.6-31.4q-0.1-0.5 0.4-0.8c4.3-2.2 12-6.3 12.7-11.6 0.4-4-1.3-7.6-3-11.8q-0.1-0.1-0.1-0.2 0-0.2 0.1-0.3 0.1-0.1 0.2-0.2 0.1 0 0.2-0.1c6.3-1.3 11.7-3.6 15.5-8.8q1.1-1.6 1-3.2c-0.3-4.1-1.2-7.7-2.3-12.8-0.7-2.6-0.6-4.5 1.2-6.4q1.1-1.1 4.2-2.2 5.2-1.8 11.7-4.3c6-2.3 18.4-7.5 18.4-15.1q0-1.7-1.5-4.5-8.2-15.1-15-36.6-5.3-16.3-6.9-34.4-0.4-5.6 0.1-8.3 1-4.4 4.9-7.5 7-5.5 14.2-10.2 0.3-0.2 0.6-0.5 0.2-0.3 0.4-0.6 0.2-0.3 0.3-0.7 0.1-0.3 0.1-0.7 0.5-35 1.1-70.2c0.3-13.2 0-26.4-0.1-42.7q0-0.2 0-0.3 0-0.1 0.1-0.3 0.1-0.1 0.2-0.2 0.2 0 0.3-0.1 7.5-2.4 14.6-6.3c17.9-9.9 23.7-26 24.3-45.7q0-0.2 0.1-0.3 0-0.2 0.2-0.4 0.1-0.1 0.3-0.2 0.2-0.1 0.3-0.1 8.9-1.2 17.5-3.3 0.9-0.2 1.4-0.5 0.2-0.1 0.3-0.3 0-0.1 0-0.3 0-0.1 0-0.3-0.1-0.1-0.3-0.2l-46.8-30.2q-0.1-0.1-0.2-0.3-0.1-0.2-0.1-0.4 0-0.2 0.1-0.4 0.1-0.2 0.3-0.3 5-2.3 9.1-6.4 0.3-0.3 0.4-0.7 0.1-0.3 0.1-0.7-0.1-0.3-0.3-0.7-0.2-0.2-0.6-0.4l-21.8-11.2q-2-1.1 0.2-1.7c9.1-2.6 16.7-8.6 20.4-17.3q1.7-4-1.4-0.9c-7.8 7.9-20.8 8.4-31.1 6.1q-4.1-0.9-15.5-4.7-5.7-2-15-5.9c-31.2-13.2-62.3-25.3-95.2-35.8q-21.8-7-40.2-9.9-22.4-3.5-46.9-2.2-40.4 2.1-74.8 22-21 12.2-38.5 29c-1.9 1.9-5.2 4.6-7.8 5.8-7.4 3.4-14.5 7.4-20.6 13.2q-10.7 10.2-18.3 23-25.3 42-20.9 89.7 0.7 7.2 3.3 19.2 2.6 12.2 5 18.6 12.4 33.1 20.7 56.2 8.1 22.4 12.7 49.1 7.8 45-1.6 88.2"/>
		<path id="Layer" fill-rule="evenodd" class="s2" d="m785.2 1523q12.3-18.4 20.1-37c21.1-49.8 10.5-114.2-33.2-149.5q-13.9-11.3-27.9-17.6-9.1-4.2-28-11.6-28.2-11.1-50.9-19.5-0.1-0.1-0.2-0.2-0.1-0.1-0.1-0.2 0-0.1 0-0.3 0.1-0.1 0.2-0.2l0.4-0.2q0 0 0.1-0.1 0 0 0 0 0 0 0.1 0 0 0 0 0 19.5 5.6 40.1 7.4c12.9 1.1 24.9-0.2 35.9-4.9 32.1-13.5 42-46 37.8-78.4q-1-8.4-3.4-19.7-7.5-35.5-24.1-71.4-18.9-40.6-39.9-74.7-3.3-5.3-10.9-16.9-20.4-30.9-50.5-76.2-1.9-2.9-1.6-5.8 1.4-15.7 0.3-26.8-1.1-11.4-3.4-24.3-7.6-41.4-18.4-82.6"/>
		<path id="Layer" fill-rule="evenodd" class="s1" d="m627.7 812.3q-0.8-4.2-1.6-8.7-0.8-4.7-1.7-8.8-4.8-21.8-18.8-86.5-1.1-4.9 0.2-7.3 13.2-24.2 21.6-50.3 0.1-0.3 0.1-0.7 0-0.3-0.1-0.6-0.1-0.3-0.3-0.6-0.2-0.3-0.5-0.5-14.8-10.6-22.1-27.6-2.6-6.1-5.9-17.7"/>
		<path id="Layer" fill-rule="evenodd" class="s2" d="m598.6 603q0-2.3-1.2-3.8-0.4-0.4-0.6 0-2.7 5.9-11 23.4-12 25.4-28.3 47.9-6.7 9.3-12.6 15.5-9.9 10.6-22.5 20.1-9.1 6.9-18.9 8.9-1.4 0.3-5.8 0.8-2.2 0.3-4.3 1.3-2.1 1-4.2 1.9"/>
		<path id="Layer" fill-rule="evenodd" class="s0" d="m598.6 603q-1.9 3-2.1 6.5-2.3 57 4.4 114.5 9 76.9 21.3 152.8 0.4 2.2 1 3.8 1 2.6 1.2-0.2l3.3-68.1"/>
		<path id="Layer" fill-rule="evenodd" class="s2" d="m773.7 1528.3q-12.5-24.3-32.1-42.9"/>
		<path id="Layer" fill-rule="evenodd" class="s1" d="m1408.5 712.9q-19.1 54.1-30 106.4-2.5 12.3-3.6 25.2-0.8 10.1 0 18.1 2.9 28.5 23.4 48.4 24 23.4 54.8 36.9 0.5 0.2 0.6-0.1 0-0.1 0-0.1 0-0.1 0-0.1 0 0-0.1-0.1 0 0 0 0c-8.3-6-16-11.7-22.5-18.1q-30-29.7-31.7-73.6c-1-28.1 5.7-56.5 16.4-82.3q11.1-26.8 27.7-64.9 4.7-10.8 8.7-23.7 0.8-2.7 0.8 0.1c0 24.6-2.8 49.1-9.3 72.6q-5 17.7-8.8 31c-5 17.2-8.9 35.2-8.5 53.3q0 0.3 0.2 0.2 0-0.1 0.1-0.1 0 0 0 0 0.1 0 0.1-0.1 0 0 0 0 3.1-27.9 12.6-58 12.4-39.1 15.8-50.3 6.3-21 8.7-44.3c1-9.3 1.3-20.4 0.8-29.3q-3.3-54.1-23.2-105.5-8.3-21.6-19.9-40.5c-13.5-22-31.1-41.8-53.7-54.3q-23.6-13.1-50.5-13.6c-11.4-0.2-23.7 2-33.8 6.5q-10.5 4.7-21.3 12.1-0.4 0.2-0.6 0l-0.7-0.7q-0.1-0.1 0-0.3 21.3-19.3 48.7-24.3 27-4.8 52.5 4.5c30.7 11.2 55.8 35.8 70.4 64.6q8.4 16.5 12.1 32.8 0 0 0.1 0.1 0 0 0 0 0.1 0.1 0.1 0.1 0.1 0 0.1 0l0.3-0.1q0.1 0 0.2 0 0-0.1 0.1-0.1 0-0.1 0.1-0.2 0 0 0-0.1c-3.8-35.4-16.8-71.5-39.8-99-13.9-16.6-30.7-28.2-51.7-33.7q-26.2-6.8-50.7 2.7-24.5 9.4-42.3 29.7-7 7.8-12.3 14.7-0.1 0.2-0.3 0.2-0.1 0.1-0.3 0.1-0.1 0-0.3 0-0.2-0.1-0.3-0.2-13.4-12.1-23.2-19.6c-41.9-32.3-95.3-44.8-147.4-37.6q-8.4 1.1-19.7 3.5-38 7.8-70 28.1-35.2 22.4-59 56.1-0.1 0.1-0.1 0.3 0 0.2 0.1 0.4 0.1 0.2 0.2 0.3 0.2 0.1 0.4 0.1 46.2-3.4 85.3 22.1 29.2 18.9 46.7 48.8 9.1 15.5 15.3 33.7 0.2 0.5-0.3 0.6-0.1 0-0.2 0 0-0.1-0.1-0.1-0.1 0-0.1-0.1-0.1 0-0.1-0.1-6.1-10.6-8.8-15c-14.9-23.6-34.5-41.8-58.3-57.8q-38.9-26-85.9-29.5-0.5-0.1-0.5 0.4-5.2 29.9-6.8 61.2c-1.2 24.9 0.5 49.3 6.8 73.5q1.3 4.7 3.1 7.6 2.6 3.9 7.8 10.2 3.8 4.6 4.8 7.7 1.7 5.2 1.2 9.6-2.1 16.6-9.5 32.6c-4.3 9-10.7 18.6-15.9 27.3-2.5 4.2 0.5 6.7 3.8 10 8.2 8.5 18.7 12.9 30.4 15q0.2 0 0.4 0.1 0.2 0.1 0.4 0.3 0.2 0.1 0.3 0.3 0.1 0.2 0.1 0.4 0.7 4.1 0.5 8.3-0.2 4.7 0.6 6.8c2.9 7.5 7.2 12.9 15.1 13.5q0.2 0 0.4 0.1 0.2 0.1 0.4 0.3 0.1 0.2 0.2 0.4 0.1 0.2 0.1 0.5-0.7 5.8-0.6 8.2 0.2 2.5 2.4 5.7c1.2 1.7 4.2 1.8 6.5 2.3 6 1.2 11.9 4.5 12.4 11.6q0.8 12.7 1.5 17.6 1.3 10.5 9 15.3 5.4 3.3 15.7 3.3 10.1 0 19.4-3.5 18.6-7.2 38-15.4 10.3-4.3 14.2-4.3 11.5-0.2 18.3 10.3c8.6 13.3 11.5 28.3 13 44.9q3.2 37.3-4.6 70.7-0.3 1.1-1.1 2.1c-29.7 35.8-44.5 58.7-81.2 110.6q-6.5 9.3-11.8 16.1-22.3 28.9-47.7 57c-14.5 16.1-29.5 31.4-43.2 49.3q-13.2 17.3-22 35.6-14.9 31.1-12.1 65.8 3 35.5 23.6 64.2 9.6 13.3 22.1 24.8c1.8 1.7 2.5 2.9 2.5 5.3q-0.4 14.2-1.5 38.2c-2 44.8 12.2 88.5 40.9 122.8q0.2 0.3 0.5 0.4 0.2 0.1 0.5 0.1 0.3 0 0.6-0.2 0.2-0.1 0.4-0.4 72.1-109.7 177-188.6 9-6.8 16.1-11.8 30.5-21.3 66.7-45.5 2.4-1.6-0.5-1.8c-10.4-0.6-20.6-3.3-28.3-9.3q-13.3-10.2-24.4-21.8-7.8-8.2-13.2-15.6c-15.6-21.5-26.5-46.6-30.2-72.9-8.5-60.6 19.5-120.9 64.1-160.9 11.5-10.2 25.5-19.6 39.2-25.6q21.5-9.5 46.9-9.2 4.2 0.1 6.7 1.8 18.2 12.7 28.5 30.7c20 34.8 26.6 74.5 18.3 113.7-8.7 41.2-30.8 79.3-60.1 109.3-1.9 2.1-2 3.1-2.4 5.8q-0.7 4.1-6 39-0.1 1.1 0.4 1.4 0.1 0.1 0.2 0.1 0.1 0.1 0.3 0.1 0.1 0 0.2 0 0.1-0.1 0.2-0.1 17.5-10.1 34.4-19.8c3.7-2.2 7.3-4.6 9.6-7.6q24.7-31.8 46.7-65.7 12.5-19.2 22.3-40.1 4.8-10.4 7.9-18.3c8.1-21.2 11.3-44.4 6-65.8-6-24.1-18.3-45.3-33.7-64.8q-19.2-24.4-44-44.3-0.1-0.1-0.3-0.1-0.1-0.1-0.3-0.2-0.1-0.1-0.3-0.1-0.2 0-0.3 0-38.8-3.2-74.1 10.7-19.7 7.8-38.5 21.1-18.7 13.3-32.6 27.2-21.2 21-42.6 48.3-8.2 10.5-24.3 33.3-18.5 26.3-45.5 50-22.3 19.7-50.6 31.6-13 5.5-26.3 6.9-5.5 0.5-9.6-0.5-14.1-3.3-14.7-16.7c-0.4-7.1 3.9-14.4 7.6-20.1q1.7-2.7 5.7-7.5 16.9-20.1 30.8-37.1 17.7-21.5 30.4-43.8 3.5-6.2 11.6-20.3 4.2-7.4 10.8-16.1 21.4-28.7 44.4-56.2 4.1-4.9 5.7-7.6 3-5.1 3.7-8.9 1-5 3.3-18.1 16.5-92.5 32.9-182.4 5.3-29.5 14.4-70 0.1-0.2 0.3-0.1l0.3 0.1q0 0.1 0 0.1-1.5 10.8-2.5 20.4-4.4 43.1 11.2 83.1 15.2 38.8 43.1 68.5 28.8 30.6 62.6 63.2 0.2 0.1 0.4-0.1l0.3-0.3q0.3-0.3 0.1-0.6-10.6-13.1-17.5-23-22-31.8-34.6-69.8c-5.3-15.7-8.4-33.2-8-48.7q0.9-33.7 21.9-60.4c16.4-20.8 29.1-35.9 39-56.9q15.9-33.7 10.2-70.9-2.9-18.6-10.7-35.2-2.8-6.2-9.7-17.5-3.5-5.6-10.9-17.5-0.2-0.3-0.3-0.7-0.1-0.3 0-0.7 0.1-0.3 0.3-0.6 0.1-0.4 0.4-0.6 2-1.5 4.6-2.2 4.2-1.1 14.9-1.7 24.7-1.4 44.9 13.9c22.8 17.1 31.3 42.2 32 70q0.6 21.6-4.1 42-5.6 24.5-13.9 49.2-0.6 2-6.4 19-10.1 29.4-17.8 47.9-13.9 33-18.2 43.8c-14.7 36.9-18.1 78.2-1.3 115.1q12.5 27.3 37 46.6 21.6 17 44.3 25.1 27.7 9.7 59 15.6 0.1 0 0.1 0 0.1 0 0.2-0.1 0 0 0.1-0.1 0-0.1 0-0.1v-0.3q0-0.2-0.1-0.3-0.1-0.2-0.1-0.3-0.1-0.1-0.2-0.2-0.2-0.1-0.3-0.1-21.9-5.2-40.5-15.5-40.9-22.6-45.3-68-0.9-9.3-0.2-20 1.1-18.9 4.7-33.6 2.6-10.7 9.7-33.2 16.4-52.2 37.3-101.5 0.7-1.6 0.1 0.1z"/>
		<path id="Layer" fill-rule="evenodd" class="s1" d="m763.2 590.2q-0.2-0.2 0.1-0.3 24.9-15.8 53.9-12.6c7.6 0.8 13.4 3.2 19.1 7.6q5.1 3.9 9.8 7.9 0.1 0.1 0.3 0.2 0.1 0 0.3 0 0.1-0.1 0.2-0.2 0.2-0.1 0.2-0.2 0.9-2.1 0.8-4.6-4-57.7 1.6-115.4 0-0.2-0.1-0.4 0-0.2-0.2-0.4-0.1-0.1-0.3-0.2-0.2 0-0.5 0-14 2.5-27.4 2.2c-21.3-0.6-44.6-8.3-63.6-18.5q-0.2-0.1-0.6-0.1-0.3 0-0.6 0.1-0.3 0.2-0.5 0.5-0.2 0.2-0.2 0.6-0.3 3.7 0 7.3 0.4 3.2 1.4 7.3 7.6 28.6 20.7 55.9c1 2 1.2 4.9-0.6 6.8q-2.6 2.8-5.1 4.7-2 1.5-6.1 3.1c-20.2 7.4-41.3 21-48.2 42.3q-3 9.3-4.5 17.4-3.1 18.2-6.6 35.5-0.1 0.4-0.2 0.7-0.2 0.3-0.4 0.5-0.3 0.3-0.6 0.4-0.3 0.2-0.6 0.3c-4.5 0.9-11.7-3.6-15.6-5.6q-6.8-3.5-11.7-6.6-4.5-2.9-3.5-8.7 2.6-14.7 7.8-41.2c2.7-14.2 1-29.4-8.6-40.1q-13.6-15.1-33.9-15.8c-7.8-0.2-14.8 2.1-19.7 7.7q-6 6.9-8.6 17.2c-3.9 15.9-2.9 33.2-0.4 50.5 2.3 15.1 7.7 30.6 19.3 40.6q3.1 2.7 7.9 4.1 2.2 0.6 5.7 0.2 3-0.4 5.7-0.5 0.3 0 0.5 0.1 0.3 0.1 0.5 0.3 0.2 0.1 0.3 0.4 0.1 0.2 0 0.5-0.5 29.6-0.9 53.8 0 3.4 0.1 8.3c0.1 2 1.1 2.6 2.6 4q21 20.1 40.3 35.2c1.1 0.9 1.9 0.8 3.2 0.2q34.9-14.4 65.1-32.3c2.8-1.6 4.8-3.7 7.6-5.1q0.2 0 0.4 0 0.2 0 0.4 0.1 0.1 0.1 0.2 0.3 0.1 0.2 0 0.4-4.8 19.9-12.1 38.2-6.3 15.8-7.8 19.5c-4 10.6-4.7 22.9 2.7 31.8q10.5 12.6 26.8 6.8 2-0.7 5.3-4.4 1.7-1.9 2.2-6.2 0.2-1.8 2.7-13.8 0.2-1.2 2.9-7c2.3-5 3.3-7.9-0.8-12q-6.2-6.5-15-8.4-0.3 0-0.5-0.2-0.2-0.2-0.3-0.5-0.1-0.3-0.1-0.6 0.1-0.2 0.3-0.5 8.6-9.9 20.9-15.7 1.1-0.5 15.5-6.6 2.5-1 4.4-3 1.2-1.3 0.6-2.4-0.4-0.6-1.7-1.1-1.7-0.6-4.9-1.8c-8.3-2.9-13.4-9-14.6-17.8-0.3-1.8-0.1-5.6 2.2-5.9q0.3 0 0.6 0 0.3 0.1 0.6 0.2 0.3 0.2 0.6 0.4 0.2 0.2 0.4 0.5 3.8 6.5 6.6 10 3.6 4.3 9 5 9.7 1.3 19.1-1.6c2.9-0.9 7-2.9 8-6.1q0.4-1.3-0.5-3.7-2.5-7.2-9-27.7-9-28.7-9.5-58.6 0-0.3-0.1-0.5-0.2-0.2-0.4-0.3-0.3-0.1-0.6-0.1-0.2 0.1-0.4 0.3c-7.3 7.3-9.2 14.1-13.6 26.4q-1.9 5.4-3.6 9.7-0.1 0.2-0.3 0.3-0.2 0.2-0.4 0.2-0.3 0-0.5-0.1-0.2-0.1-0.3-0.3-13-24.9-33.1-43.1-1.4-1.4 0.5-0.8 16.3 4.6 30.8 13.6c2.4 1.5 4 0.5 5.3-1.7q5.4-9.5 12.8-17.8 1.3-1.5 1.4-2.1 0.5-1.8-1.2-2.7-11-6-24.2-7-10.3-0.7-13.5-0.8-10.2-0.2-19.2 3.9-0.1 0-0.1 0z"/>
		<path id="Layer" fill-rule="evenodd" class="s1" d="m1246.1 492.6q7.9 39.9-0.3 77.7-2.5 12-9.5 26.6-0.1 0.1-0.1 0.2 0 0.2 0 0.3 0 0.1 0.1 0.2 0 0.1 0.1 0.2l0.3 0.3q0.3 0.3 0.6-0.1 8.2-12.1 13.5-26.3 16.9-45.3 3.1-91.9c-0.7-2.4-1.3-5.2-2.7-7.4q-1.4-2.2-4.7-4.3c-29.5-19-64.4-28.3-99.5-27.9q-81.7 0.9-147.3 48.5-0.6 0.4-0.1 0.9l0.2 0.2q0.1 0 0.1 0.1 0.1 0 0.2 0 0.1 0 0.1 0 0.1 0 0.2 0 29.4-15.7 63.4-23.1 39.3-8.6 77-8 22.7 0.3 45.7 5 31.3 6.4 57.8 26.2 1.5 1.2 1.8 2.6z"/>
		<path id="Layer" fill-rule="evenodd" class="s2" d="m951.3 752.4q-0.8 4.5 1.4 7.8 0.1 0.2 0.2 0.3 0.2 0.1 0.3 0.2 0.2 0.1 0.4 0.1 0.2 0.1 0.4 0.1h5.6q0.1 0 0.2-0.1 0.1 0 0.2-0.1 0.1-0.1 0.2-0.2 0-0.1 0-0.3v-1.8q0-0.5 0.5-0.6l8.3-3"/>
		<path id="Layer" fill-rule="evenodd" class="s1" d="m969 754.8q11.2 4 23.2 1.6 0.5-0.1 0.7 0.5 0.2 0.6-0.6 1.7"/>
		<path id="Layer" fill-rule="evenodd" class="s2" d="m992.3 758.6q-2.2-0.6-3.5 0.1-8.8 5.1-20.3 14.5-0.4 0.4-0.5 0.9-1 4.2-1.1 8.3 0 4.4 2.9 6.4 3.2 2.3 8.5 0"/>
		<path id="Layer" fill-rule="evenodd" class="s1" d="m978.3 788.9q7.2 2.5 10.2 8.6 1.1 2.4 2 8.9c0.9 6.6 2 14.4 4.4 20.1q2.1 4.9 6.8 3.4c5.3-1.8 11-5.7 15.5-9q40.5-30.2 80.3-62.9 10.2-8.5 19.9-17.7c10.3-9.8 17.4-16.2 22.2-27.2q5-11.1-1.5-21.4-5.8-9.1-14.2-16.2-0.1-0.1-0.1-0.3-0.1-0.1-0.1-0.3 0-0.1 0.1-0.3 0.1-0.1 0.2-0.2 14.8-9.3 21.7-24.7 10.2-23 6.3-48-1.3-8.6-2.9-12.9c-4.5-12.3-13.9-20-27.6-17.5q-17 3-27.4 16.8-8 10.6-6.5 24.5 0.2 1.7 1.3 12.5 0.7 6.9 0.6 12.5 0 12.9-1.9 26.6-0.3 2.4-0.6 0-0.5-4.2-2.3-8.9-17.1-43.6-56.2-68.7-3.4-2.1-17.3-10.2-16.4-9.4-35.2-20-11.4-6.4-17.2-10.1-12.5-8-27.8-20.2-1.5-1.1-2.8 0.1 0 0.1-0.1 0.2-0.1 0.1-0.1 0.2-0.1 0-0.1 0.1-0.1 0.1-0.1 0.3-6.9 35.3-5.3 70 0.6 13.7 4.3 26.4 0.1 0.3 0.3 0.5 0.2 0.3 0.5 0.4 0.3 0 0.7 0 0.3-0.1 0.5-0.3 5.6-5.3 15.3-14.7 4.1-4 7.4-5.3 24.3-9.9 47.4 1.2 0.1 0 0.2 0.1 0 0.1 0 0.2 0 0.1-0.1 0.2-0.1 0-0.2 0.1-3.2 0.4-10.5 0.3-5.3-0.1-11.9 2c-10.7 3.4-19.7 8.7-25 19.3q-1.2 2.5-0.3 3.6c1.6 1.9 4.3 0.8 6-0.6q5.3-4.3 13.5-4.2 0.2 0 0.3 0.1 0.3 0.1 0.2 0.2 0 0.1-0.1 0.1 0 0.1-0.1 0.1 0 0.1 0 0.1-0.1 0-0.1 0-5.3 1.2-10.8 3.4-0.3 0.2-0.6 0.4-0.3 0.3-0.4 0.7-0.1 0.4-0.1 0.8 0.1 0.4 0.3 0.7c2.3 3.5 6.8 6.9 11.6 5.8q10.9-2.5 21.7-5.1 1.5-0.4 1.7 0.7 0 0 0 0.1 0 0 0 0.1 0 0.1 0 0.1-0.1 0.1-0.1 0.1-9.6 18.5-26.4 29.8-1.6 1.1-2.7 0.8-0.6-0.2-0.2-0.6l4.5-4.5q0.2-0.1 0.2-0.4 0.1-0.2 0-0.4-0.1-0.2-0.3-0.3-0.1-0.2-0.4-0.2-7.6-0.8-8.4-0.8c-4.1-0.4-8-2.2-10.9-4q-4.6-2.9 0.7-1.6 2.4 0.6 8.4-0.9 1.4-0.3 2-1.3 1-1.5 0.9-2.3-1.5-8.4-9.3-12.1-9.2-4.5-18.8-6.9-3.1-0.8-1 1.6 10.3 12.2 10.8 27.3 0.3 8.7-3 19.7c-5 16.7-13.4 31.9-23.1 46.3q-0.2 0.2-0.2 0.5 0 0.2 0.1 0.4 0.1 0.3 0.3 0.4 0.2 0.2 0.5 0.2 4.9 0.5 9.4 0.1c12.1-0.9 24-9.2 34.5-0.1q0.2 0.2 0.5 0.2 0.3 0.1 0.6-0.1 0.3-0.1 0.5-0.4 0.1-0.2 0.1-0.5v-5.3q0-0.1 0.1-0.1 0.2-0.1 0.3-0.1 0.4 0.1 0.5 0.4 1.9 6-1.8 10.9-3.8 5.2-10.1 10.2-0.1 0.1-0.1 0.2-0.1 0.1-0.2 0.2 0 0.1-0.1 0.2 0 0.1 0 0.3l-0.7 11"/>
		<path id="Layer" fill-rule="evenodd" class="s0" d="m978.3 788.9q5.6-10.9 11.5-21.7 1.6-2.9 2.5-8.6"/>
		<path id="Layer" fill-rule="evenodd" class="s0" d="m969 754.8q-8.2-7.7-17.7-2.4"/>
		<path id="Layer" fill-rule="evenodd" class="s1" d="m652.1 558.9c0.5 4.2-0.6 9.1-2.3 13.9q-2.9 8.4-5.8 17.7c-3 9.9 1 22.6 5.6 31.4q0.6 1.3 1-0.1 2.4-8.8 6.1-18.8 1.6-4.2 8.9-21.7 5.9-14.3-0.8-28.3-4.2-8.8-12.1-14.1c-18.1-12-32.4 1.9-34.6 19.9q0 0.6 0.3 1.1 0 0.2 0.2 0.2 0.1 0.1 0.3 0.1 0.2 0 0.3-0.1 0.1-0.1 0.2-0.3 1.4-4.1 4-7.4 3.7-4.6 10-4.1 9.1 0.6 15.6 6 2.8 2.3 3.1 4.6z"/>
		<path id="Layer" fill-rule="evenodd" class="s1" d="m1128.4 594.2q3.2 0.2 5.9 0.6c4.2 0.7 6.2 4.4 8.5 8.1q1.5 2.4 1.1-0.3-0.9-7.6-5.5-13.4c-6-7.3-17.3-8.8-25-3.8-11.2 7.4-13.6 20-12.1 33.2q0.6 5.3 4.6 16.3 2.7 7.2 7.8 22 0 0.1 0.1 0.2 0.1 0.1 0.2 0.2 0.2 0 0.3 0 0.1 0 0.2-0.1 0.4-0.3 0.8-1.4 2.2-7.1 4.4-16.6c0.7-3.1 0.4-7-0.5-9.4q-1.8-5.2-3.7-10.4-2.6-7.4-2.6-10.6 0-9.6 9.7-13.5 3.2-1.3 5.8-1.1z"/>
		<path id="Layer" fill-rule="evenodd" class="s0" d="m557.7 882.4q27.7 28.4 51 62.5 0.1 0.1 0.2 0.2 0.1 0 0.2 0 0.1 0.1 0.3 0.1 0.1-0.1 0.3-0.1l0.3-0.2q0 0 0.1-0.1 0 0 0.1-0.1 0-0.1 0-0.2 0-0.1-0.1-0.1-30.7-63.1-63.3-125.6-0.2-0.4-0.5-0.6-0.3-0.3-0.6-0.4-0.4-0.2-0.8-0.2-0.4 0-0.8 0.1-12 4.4-25.1 4.9-21.1 0.8-42.5-3.9-0.8-0.2-0.6 0.6 0 0 0.1 0 0 0 0 0.1 0 0 0.1 0 0 0 0 0.1 22.8 12.1 42.2 27 18 14 39.4 35.9z"/>
		<path id="Layer" fill-rule="evenodd" class="s0" d="m504.3 949c22 16.3 42.1 36.1 58.1 58.2q27.2 37.5 43.6 80.3 9.3 24.5 13 46.5 4.1 24.4-0.3 50.6 0 0.2 0.2 0.2l0.5 0.3q0.2 0.1 0.3-0.1 12.9-37.2 8.6-76.2-4.7-43.5-26.4-82.3-19.3-34.7-50.5-59.1-36.3-28.3-81.7-40.5-0.5-0.1-0.7 0-0.8 0.2-0.1 0.5 16.7 7.7 35.4 21.6z"/>
		<path id="Layer" fill-rule="evenodd" class="s2" d="m605.3 1205.3c-17.8 16.1-37.5 28.1-60.3 35.6-6.4 2.1-11.9 3.1-18.1 4.2q-0.2 0-0.4 0.2-0.2 0.1-0.3 0.4-0.1 0.2 0 0.4 0 0.3 0.2 0.5 0.7 1 2.6 1.6 30.8 10.2 51 16.4 0.1 0.1 0.3 0 0.2 0 0.4 0 0.2-0.1 0.3-0.3 0.2-0.1 0.3-0.3l25.9-58.5q0.1-0.1 0.1-0.2 0-0.2-0.1-0.3 0-0.1-0.1-0.1-0.1-0.1-0.2-0.1-0.9-0.2-1.6 0.5z"/>
	</g>
	<path id="Layer" fill-rule="evenodd" class="s3" d="m1773 0v1773h-1773v-1773zm-1283.8 719c-11.3 35.8-28.3 66.7-49.2 96q-23.6 33.1-51.7 62.3-38.3 39.7-51.6 53.4c-18.8 19.4-35 41.8-43.8 66.5q-15.1 42.1 0.5 83.9 3.2 8.6 8.5 18.1c12.8 23.6 29.5 44.5 48.9 63.5 25.7 24.9 55 48.4 84.9 69.7q33.2 23.6 68.8 47.2 38.3 25.4 54 36.6 32.3 22.9 65.2 49.6 8.3 6.8 15.2 12.9 30.1 26.4 51.5 49.9 25.7 28.4 51.2 56.8l32.1 42.8q0.9 2.5 3.3 4.7 0.2 0.1 0.3 0.2 0.2 0 0.3 0 0.2 0 0.3-0.1 0.2-0.1 0.3-0.2l7-9.8q24.2-28.6 30.9-65.1 4.6-25.4 3.1-49.6-2-34.1-21-64.2c-0.9-1.4-1.1-2.2-1-3.6q2-19.7 2.5-22.4 0.3-1.4 0.5-2.9 0.2-1.2 0.8-2.8c2.2-6.6 6-16.8 7.8-24.7q4.3-18.9 4.3-33.7 0-43.9-18.2-86.9-9.9-23.4-21.5-43.8-25-44.1-56.4-85.5-14-18.4-59-78.4-4.4-6-5.2-7.5-2-4.2-1.7-9.1 2.4-43.8 3.9-60.5 1.9-22.9 7-40.3 2.1-7.4 7.1-15.6c1-1.5 2.3-2.8 4.2-2.4q14.2 2.5 30 8.5 2.5 1 20.8 5.2 0.1 0 12.4 2.6c13.6 2.9 27.8 4.8 40.7-0.1q17.4-6.7 20.2-26.3c1.5-10 0.6-20.9-0.6-31.4q-0.1-0.5 0.4-0.8c4.3-2.2 12-6.3 12.7-11.6 0.4-4-1.3-7.6-3-11.8q-0.1-0.1-0.1-0.2 0-0.2 0.1-0.3 0.1-0.1 0.2-0.2 0.1 0 0.2-0.1c6.3-1.3 11.7-3.6 15.5-8.8q1.1-1.6 1-3.2c-0.3-4.1-1.2-7.8-2.3-12.8-0.7-2.6-0.6-4.5 1.2-6.4q1.1-1.1 4.2-2.2 5.2-1.8 11.7-4.3c6-2.3 18.4-7.5 18.4-15.1q0-1.7-1.5-4.5-8.2-15.1-15-36.6-5.3-16.3-6.9-34.4-0.4-5.6 0.1-8.3 1-4.4 4.9-7.5 7-5.5 14.2-10.2 0.3-0.2 0.6-0.5 0.2-0.3 0.4-0.6 0.2-0.3 0.3-0.7 0.1-0.3 0.1-0.7 0.5-35 1.1-70.2c0.3-13.2 0-26.4-0.1-42.7q0-0.2 0-0.3 0-0.1 0.1-0.3 0.1-0.1 0.2-0.2 0.2 0 0.3-0.1 7.5-2.4 14.6-6.3c17.9-9.9 23.7-26 24.3-45.7q0-0.2 0.1-0.3 0-0.2 0.2-0.4 0.1-0.1 0.3-0.2 0.2-0.1 0.3-0.1 8.9-1.2 17.5-3.3 0.9-0.2 1.4-0.5 0.2-0.1 0.3-0.3 0-0.1 0-0.3 0-0.1 0-0.3-0.1-0.1-0.3-0.2l-46.8-30.2q-0.1-0.1-0.2-0.3-0.1-0.2-0.1-0.4 0-0.2 0.1-0.4 0.1-0.2 0.3-0.3 5-2.3 9.1-6.5 0.3-0.2 0.4-0.6 0.1-0.3 0.1-0.7-0.1-0.3-0.3-0.7-0.2-0.2-0.6-0.4l-21.8-11.2q-2-1.1 0.2-1.7c9.1-2.6 16.7-8.6 20.4-17.3q1.7-4-1.4-0.9c-7.8 7.9-20.8 8.4-31.1 6.1q-4.1-0.9-15.5-4.7-5.7-2-15-5.9c-31.2-13.2-62.3-25.3-95.2-35.8q-21.8-7-40.2-9.9-22.4-3.5-46.9-2.2-40.4 2.1-74.8 22-21 12.2-38.5 29c-1.9 1.9-5.2 4.6-7.8 5.8-7.4 3.4-14.5 7.4-20.6 13.2q-10.7 10.2-18.3 23-25.3 42-20.9 89.7 0.7 7.2 3.3 19.2 2.6 12.2 5 18.6 12.4 33.1 20.7 56.2 8.1 22.4 12.7 49.1 7.8 45-1.6 88.2zm919.3-6.1q-19.1 54.1-30 106.4-2.5 12.3-3.6 25.2-0.8 10.1 0 18.1 2.9 28.5 23.4 48.4 24 23.4 54.8 36.9 0.5 0.2 0.6-0.2 0 0 0 0 0-0.1 0-0.1 0 0-0.1-0.1 0 0 0 0c-8.3-6-16-11.7-22.5-18.1q-30-29.7-31.7-73.6c-1-28.1 5.7-56.5 16.4-82.3q11.1-26.8 27.7-64.9 4.7-10.8 8.7-23.7 0.8-2.7 0.8 0.1c0 24.6-2.8 49.1-9.3 72.6q-5 17.7-8.8 31c-5 17.2-8.9 35.2-8.5 53.3q0 0.2 0.2 0.2 0-0.1 0.1-0.1 0 0 0 0 0.1 0 0.1-0.1 0 0 0 0 3.1-27.9 12.6-58 12.4-39.1 15.8-50.3 6.3-21 8.7-44.3c1-9.3 1.3-20.4 0.8-29.3q-3.3-54.1-23.2-105.5-8.3-21.6-19.9-40.5c-13.5-22-31.1-41.8-53.7-54.3q-23.6-13.1-50.5-13.6c-11.4-0.2-23.7 2-33.8 6.5q-10.5 4.7-21.3 12.1-0.4 0.2-0.6 0l-0.7-0.7q-0.1-0.1 0-0.3 21.3-19.3 48.7-24.3 27-4.8 52.5 4.5c30.7 11.2 55.8 35.8 70.4 64.6q8.4 16.5 12.1 32.8 0 0 0.1 0.1 0 0 0 0 0.1 0.1 0.1 0.1 0.1 0 0.1 0l0.3-0.1q0.1 0 0.2 0 0-0.1 0.1-0.1 0-0.1 0.1-0.2 0 0 0-0.1c-3.8-35.4-16.8-71.5-39.8-99-13.9-16.6-30.7-28.2-51.7-33.7q-26.2-6.8-50.7 2.7-24.5 9.4-42.3 29.7-7 7.8-12.3 14.7-0.1 0.2-0.3 0.2-0.1 0.1-0.3 0.1-0.1 0-0.3 0-0.2-0.1-0.3-0.2-13.4-12.1-23.2-19.6c-41.9-32.3-95.3-44.8-147.4-37.6q-8.4 1.1-19.7 3.5-38 7.8-70 28.1-35.2 22.4-59 56-0.1 0.2-0.1 0.4 0 0.2 0.1 0.4 0.1 0.2 0.2 0.3 0.2 0.1 0.4 0.1 46.2-3.4 85.3 22.1 29.2 18.9 46.7 48.8 9.1 15.5 15.3 33.7 0.2 0.4-0.3 0.6-0.1 0-0.2 0 0-0.1-0.1-0.1-0.1 0-0.1-0.1-0.1 0-0.1-0.1-6.1-10.6-8.8-15c-14.9-23.6-34.5-41.8-58.3-57.8q-38.9-26-85.9-29.5-0.5-0.1-0.5 0.4-5.2 29.9-6.8 61.2c-1.2 24.9 0.5 49.3 6.8 73.5q1.3 4.7 3.1 7.6 2.6 3.9 7.8 10.2 3.8 4.6 4.8 7.7 1.7 5.2 1.2 9.6-2.1 16.6-9.5 32.6c-4.3 9-10.7 18.6-15.9 27.3-2.5 4.2 0.5 6.7 3.8 10 8.2 8.5 18.7 12.9 30.4 14.9q0.2 0.1 0.4 0.2 0.2 0.1 0.4 0.3 0.2 0.1 0.3 0.3 0.1 0.2 0.1 0.4 0.7 4.1 0.5 8.3-0.2 4.7 0.6 6.8c2.9 7.5 7.2 12.9 15.1 13.5q0.2 0 0.4 0.1 0.2 0.1 0.4 0.3 0.1 0.2 0.2 0.4 0.1 0.2 0.1 0.4-0.7 5.9-0.6 8.3 0.2 2.5 2.4 5.7c1.2 1.7 4.2 1.8 6.5 2.3 6 1.2 11.9 4.5 12.4 11.6q0.8 12.6 1.5 17.6 1.3 10.5 9 15.3 5.4 3.3 15.7 3.3 10.1 0 19.4-3.5 18.6-7.2 38-15.4 10.3-4.3 14.2-4.3 11.5-0.2 18.3 10.3c8.6 13.3 11.5 28.3 13 44.9q3.2 37.3-4.6 70.7-0.3 1.1-1.1 2.1c-29.7 35.8-44.5 58.7-81.2 110.6q-6.5 9.3-11.8 16.1-22.3 28.9-47.7 57c-14.5 16.1-29.5 31.4-43.2 49.3q-13.2 17.3-22 35.6-14.9 31.1-12.1 65.8 3 35.5 23.6 64.2 9.6 13.3 22.1 24.8c1.8 1.7 2.5 2.9 2.5 5.3q-0.4 14.2-1.5 38.2c-2 44.8 12.2 88.5 40.9 122.8q0.2 0.3 0.5 0.4 0.2 0.1 0.5 0.1 0.3 0 0.6-0.2 0.2-0.1 0.4-0.4 72.1-109.7 177-188.6 9-6.8 16.1-11.8 30.5-21.3 66.7-45.5 2.4-1.6-0.5-1.8c-10.4-0.6-20.6-3.3-28.3-9.3q-13.3-10.2-24.4-21.8-7.8-8.2-13.2-15.6c-15.6-21.5-26.5-46.6-30.2-72.9-8.5-60.6 19.5-120.9 64.1-160.9 11.5-10.2 25.5-19.6 39.2-25.6q21.5-9.5 46.9-9.2 4.2 0.1 6.7 1.8 18.2 12.7 28.5 30.7c20 34.8 26.6 74.5 18.3 113.7-8.7 41.2-30.8 79.3-60.1 109.3-1.9 2.1-2 3.1-2.4 5.8q-0.7 4.1-6 39-0.1 1.1 0.4 1.4 0.1 0.1 0.2 0.1 0.1 0.1 0.3 0.1 0.1 0 0.2 0 0.1-0.1 0.2-0.1 17.5-10.1 34.4-19.8c3.7-2.2 7.3-4.6 9.6-7.6q24.7-31.8 46.7-65.7 12.5-19.2 22.3-40.1 4.8-10.4 7.9-18.3c8.1-21.2 11.3-44.4 6-65.8-6-24.1-18.3-45.3-33.7-64.8q-19.2-24.4-44-44.3-0.1-0.1-0.3-0.1-0.1-0.1-0.3-0.2-0.1-0.1-0.3-0.1-0.2 0-0.3-0.1-38.8-3.1-74.1 10.8-19.7 7.7-38.5 21.1-18.7 13.3-32.6 27.1-21.2 21.1-42.6 48.4-8.2 10.5-24.3 33.3-18.5 26.3-45.5 50-22.3 19.7-50.6 31.6-13 5.5-26.3 6.9-5.5 0.5-9.6-0.5-14.1-3.3-14.7-16.7c-0.4-7.1 3.9-14.4 7.6-20.1q1.7-2.7 5.7-7.5 16.9-20.1 30.8-37.1 17.7-21.5 30.4-43.8 3.5-6.2 11.6-20.3 4.2-7.4 10.8-16.2 21.4-28.6 44.4-56.1 4.1-4.9 5.7-7.6 3-5.1 3.7-8.9 1-5 3.3-18.1 16.5-92.5 32.9-182.4 5.3-29.5 14.4-70 0.1-0.2 0.3-0.1l0.3 0.1q0 0.1 0 0.1-1.5 10.8-2.5 20.4-4.4 43.1 11.2 83.1 15.2 38.8 43.1 68.5 28.8 30.6 62.6 63.2 0.2 0.1 0.4-0.1l0.3-0.3q0.3-0.3 0.1-0.6-10.6-13.1-17.5-23-22-31.8-34.6-69.8c-5.3-15.7-8.4-33.2-8-48.7q0.9-33.7 21.9-60.4c16.4-20.8 29.1-35.9 39-56.9q15.9-33.7 10.2-70.9-2.9-18.6-10.7-35.2-2.8-6.2-9.7-17.5-3.5-5.6-10.9-17.5-0.2-0.3-0.3-0.7-0.1-0.3 0-0.7 0.1-0.3 0.3-0.6 0.1-0.4 0.4-0.6 2-1.5 4.6-2.2 4.2-1.1 14.9-1.7 24.7-1.4 44.9 13.9c22.8 17.1 31.3 42.2 32 70q0.6 21.6-4.1 42-5.6 24.5-13.9 49.2-0.6 2-6.4 19-10.1 29.4-17.8 47.9-13.9 33-18.2 43.8c-14.7 36.9-18.1 78.2-1.3 115.1q12.5 27.3 37 46.6 21.6 17 44.3 25.1 27.7 9.7 59 15.6 0.1 0 0.1 0 0.1 0 0.2-0.1 0 0 0.1-0.1 0-0.1 0-0.1v-0.3q0-0.2-0.1-0.3-0.1-0.2-0.1-0.3-0.1-0.1-0.2-0.2-0.2-0.1-0.3-0.1-21.9-5.2-40.5-15.5-40.9-22.6-45.3-68.1-0.9-9.2-0.2-19.9 1.1-18.9 4.7-33.6 2.6-10.7 9.7-33.2 16.4-52.2 37.3-101.5 0.7-1.6 0.1 0.1z"/>
	<path id="Layer" fill-rule="evenodd" class="s4" d="m785.2 1523q12.3-18.4 20.1-37c21.1-49.8 10.5-114.2-33.2-149.5q-13.9-11.3-27.9-17.6-9.1-4.2-28-11.6-28.2-11.1-50.9-19.5-0.1-0.1-0.2-0.2-0.1-0.1-0.1-0.2 0-0.1 0-0.3 0.1-0.1 0.2-0.2l0.4-0.2q0 0 0.1-0.1 0 0 0 0 0 0 0.1 0 0 0 0 0 19.5 5.6 40.1 7.4c12.9 1.1 24.9-0.2 35.9-4.9 32.1-13.5 42-46 37.8-78.4q-1-8.4-3.4-19.7-7.5-35.5-24.1-71.4-18.9-40.6-39.9-74.7-3.3-5.3-10.9-16.9-20.4-30.9-50.5-76.2-1.9-2.9-1.6-5.8 1.4-15.7 0.3-26.8-1.1-11.4-3.4-24.3-7.6-41.4-18.4-82.6-0.8-4.2-1.6-8.7-0.8-4.7-1.7-8.8-4.8-21.8-18.8-86.5-1.1-4.9 0.2-7.3 13.2-24.2 21.6-50.3 0.1-0.3 0.1-0.7 0-0.3-0.1-0.6-0.1-0.3-0.3-0.6-0.2-0.3-0.5-0.5-14.8-10.6-22.1-27.6-2.6-6.1-5.9-17.7 0-2.3-1.2-3.8-0.4-0.4-0.6 0-2.7 5.9-11 23.4-12 25.4-28.3 47.9-6.7 9.3-12.6 15.5-9.9 10.6-22.5 20.1-9.1 6.9-18.9 8.9-1.4 0.3-5.8 0.8-2.2 0.3-4.3 1.3-2.1 1-4.2 1.9 9.4-43.2 1.6-88.2-4.6-26.7-12.7-49.1-8.3-23.1-20.7-56.2-2.4-6.4-5-18.6-2.6-12-3.3-19.2-4.4-47.7 20.9-89.7 7.6-12.8 18.3-23c6.1-5.8 13.2-9.8 20.6-13.2 2.6-1.2 5.9-3.9 7.8-5.8q17.5-16.8 38.5-29 34.4-19.9 74.8-22 24.4-1.3 46.9 2.2 18.4 2.9 40.2 9.9c32.9 10.5 64 22.6 95.2 35.8q9.3 3.9 15 5.9 11.4 3.8 15.5 4.7c10.3 2.3 23.3 1.8 31.1-6.1q3.1-3.1 1.4 0.9c-3.7 8.7-11.3 14.7-20.4 17.3q-2.2 0.6-0.2 1.7l21.8 11.2q0.4 0.2 0.6 0.4 0.2 0.4 0.3 0.7 0 0.4-0.1 0.7-0.1 0.4-0.4 0.7-4.1 4.1-9.1 6.4-0.2 0.1-0.3 0.3-0.1 0.2-0.1 0.4 0 0.2 0.1 0.4 0.1 0.2 0.2 0.3l46.8 30.2q0.2 0.1 0.3 0.2 0 0.2 0 0.3 0 0.2 0 0.3-0.1 0.2-0.3 0.3-0.5 0.3-1.4 0.5-8.6 2.1-17.5 3.3-0.1 0-0.3 0.1-0.2 0.1-0.3 0.2-0.2 0.2-0.2 0.4-0.1 0.1-0.1 0.3c-0.6 19.7-6.4 35.8-24.3 45.7q-7.1 3.9-14.6 6.3-0.1 0.1-0.3 0.1-0.1 0.1-0.2 0.2-0.1 0.2-0.1 0.3 0 0.1 0 0.3c0.1 16.3 0.4 29.5 0.1 42.7q-0.6 35.2-1.1 70.2 0 0.4-0.1 0.7-0.1 0.4-0.3 0.7-0.2 0.3-0.4 0.6-0.3 0.3-0.6 0.5-7.2 4.7-14.2 10.2-3.9 3.1-4.9 7.5-0.5 2.7-0.1 8.3 1.6 18.1 6.9 34.4 6.8 21.5 15 36.6 1.5 2.8 1.5 4.5c0 7.6-12.4 12.8-18.4 15.1q-6.5 2.5-11.7 4.3-3.1 1.1-4.2 2.2c-1.8 1.9-1.9 3.8-1.2 6.4 1.1 5.1 2 8.7 2.3 12.8q0.1 1.6-1 3.2c-3.8 5.2-9.2 7.5-15.5 8.8q-0.1 0.1-0.2 0.1-0.1 0.1-0.2 0.2-0.1 0.1-0.1 0.3 0 0.1 0.1 0.2c1.7 4.2 3.4 7.8 3 11.8-0.7 5.3-8.4 9.4-12.7 11.6q-0.5 0.3-0.4 0.8c1.2 10.5 2.1 21.4 0.6 31.4q-2.8 19.6-20.2 26.3c-12.9 4.9-27.1 3-40.7 0.1q-12.3-2.6-12.4-2.6-18.3-4.2-20.8-5.2-15.8-6-30-8.5c-1.9-0.4-3.2 0.9-4.2 2.4q-5 8.2-7.1 15.6-5.1 17.4-7 40.3-1.5 16.7-3.9 60.5-0.3 4.9 1.7 9.1 0.8 1.5 5.2 7.5 45 60 59 78.4 31.4 41.4 56.4 85.5 11.6 20.4 21.5 43.8 18.2 43 18.2 86.9 0 14.8-4.3 33.7c-1.8 7.9-5.6 18.1-7.8 24.7q-0.6 1.6-0.8 2.8-0.2 1.5-0.5 2.9-0.5 2.7-2.5 22.4c-0.1 1.4 0.1 2.2 1 3.6q19 30.1 21 64.2 1.5 24.2-3.1 49.6-6.7 36.5-30.9 65.1zm-22-932.8q-0.2-0.2 0.1-0.3 24.9-15.8 53.9-12.6c7.6 0.8 13.4 3.2 19.1 7.6q5.1 3.9 9.8 7.9 0.1 0.1 0.3 0.2 0.1 0 0.3 0 0.1-0.1 0.2-0.2 0.2-0.1 0.2-0.2 0.9-2.1 0.8-4.6-4-57.7 1.6-115.4 0-0.2-0.1-0.4 0-0.2-0.2-0.4-0.1-0.1-0.3-0.2-0.2 0-0.5 0-14 2.5-27.4 2.2c-21.3-0.6-44.6-8.3-63.6-18.5q-0.2-0.1-0.6-0.1-0.3 0-0.6 0.1-0.3 0.2-0.5 0.5-0.2 0.2-0.2 0.6-0.3 3.7 0 7.3 0.4 3.2 1.4 7.3 7.6 28.6 20.7 55.9c1 2 1.2 4.9-0.6 6.8q-2.6 2.8-5.1 4.7-2 1.5-6.1 3.1c-20.2 7.4-41.3 21-48.2 42.3q-3 9.3-4.5 17.4-3.1 18.2-6.6 35.5-0.1 0.4-0.2 0.7-0.2 0.3-0.4 0.5-0.3 0.3-0.6 0.4-0.3 0.2-0.6 0.3c-4.5 0.9-11.7-3.6-15.6-5.6q-6.8-3.5-11.7-6.6-4.5-2.9-3.5-8.7 2.6-14.7 7.8-41.2c2.7-14.2 1-29.4-8.6-40.1q-13.6-15.1-33.9-15.8c-7.8-0.2-14.8 2.1-19.7 7.7q-6 6.9-8.6 17.2c-3.9 15.9-2.9 33.2-0.4 50.5 2.3 15.1 7.7 30.6 19.3 40.6q3.1 2.7 7.9 4.1 2.2 0.6 5.7 0.2 3-0.4 5.7-0.5 0.3 0 0.5 0.1 0.3 0.1 0.5 0.3 0.2 0.1 0.3 0.4 0.1 0.2 0 0.5-0.5 29.6-0.9 53.8 0 3.4 0.1 8.3c0.1 2 1.1 2.6 2.6 4.1q21 20 40.3 35.1c1.1 0.9 1.9 0.8 3.2 0.2q34.9-14.4 65.1-32.3c2.8-1.6 4.8-3.7 7.6-5.1q0.2 0 0.4 0 0.2 0 0.4 0.1 0.1 0.1 0.2 0.3 0.1 0.2 0 0.4-4.8 19.9-12.1 38.2-6.3 15.8-7.8 19.5c-4 10.6-4.7 22.9 2.7 31.8q10.5 12.6 26.8 6.8 2-0.7 5.3-4.4 1.6-1.9 2.2-6.2 0.2-1.8 2.7-13.8 0.2-1.2 2.9-7c2.3-5 3.3-7.9-0.8-12q-6.2-6.5-15-8.4-0.3 0-0.5-0.2-0.2-0.2-0.3-0.5-0.1-0.3-0.1-0.6 0.1-0.2 0.3-0.5 8.6-9.9 20.9-15.7 1.1-0.5 15.5-6.6 2.5-1 4.4-3 1.2-1.3 0.6-2.4-0.4-0.6-1.7-1.1-1.7-0.6-4.9-1.8c-8.3-2.9-13.4-9-14.6-17.8-0.3-1.8-0.1-5.6 2.2-5.9q0.3 0 0.6 0 0.3 0.1 0.6 0.2 0.3 0.2 0.6 0.4 0.2 0.2 0.4 0.5 3.8 6.5 6.6 10 3.6 4.3 9 5 9.7 1.3 19.1-1.6c2.9-0.9 7-2.9 8-6.1q0.4-1.3-0.5-3.7-2.5-7.2-9-27.7-9-28.7-9.5-58.6 0-0.3-0.1-0.5-0.2-0.2-0.4-0.3-0.3-0.1-0.6-0.1-0.2 0.1-0.4 0.3c-7.3 7.3-9.2 14.1-13.6 26.4q-1.9 5.4-3.6 9.7-0.1 0.2-0.3 0.3-0.2 0.2-0.4 0.2-0.3 0-0.5-0.1-0.2-0.1-0.3-0.3-13-24.9-33.1-43.1-1.4-1.4 0.5-0.8 16.3 4.6 30.8 13.6c2.4 1.5 4 0.5 5.3-1.7q5.4-9.5 12.8-17.8 1.3-1.5 1.4-2.1 0.5-1.8-1.2-2.7-11-6-24.2-7-10.3-0.7-13.5-0.8-10.2-0.2-19.2 3.9-0.1 0-0.1 0z"/>
	<path id="Layer" fill-rule="evenodd" class="s4" d="m1408.4 712.8q-20.9 49.3-37.3 101.5-7.1 22.5-9.7 33.2-3.6 14.7-4.8 33.6-0.6 10.7 0.3 19.9 4.4 45.5 45.3 68.1 18.6 10.3 40.5 15.5 0.1 0 0.3 0.1 0.1 0.1 0.2 0.2 0 0.1 0.1 0.3 0.1 0.1 0.1 0.3v0.3q0 0 0 0.1-0.1 0.1-0.1 0.1-0.1 0.1-0.2 0.1 0 0-0.1 0-31.3-5.9-59-15.6-22.8-8.1-44.3-25.1-24.5-19.3-37-46.6c-16.8-36.9-13.4-78.2 1.3-115.1q4.3-10.8 18.2-43.8 7.7-18.5 17.8-47.9 5.8-17 6.4-19 8.3-24.7 13.9-49.2 4.6-20.4 4.1-42c-0.7-27.8-9.2-52.9-32-70q-20.2-15.3-44.9-13.9-10.8 0.6-14.9 1.7-2.6 0.7-4.6 2.2-0.3 0.2-0.4 0.6-0.2 0.3-0.3 0.6-0.1 0.4 0 0.7 0.1 0.4 0.3 0.7 7.4 11.9 10.8 17.5 7 11.3 9.8 17.5 7.8 16.6 10.7 35.2 5.7 37.2-10.2 70.9c-9.9 21-22.6 36.1-39 56.9q-21 26.7-21.9 60.4c-0.4 15.5 2.7 33 8 48.7q12.6 38 34.6 69.8 6.9 9.9 17.5 23 0.2 0.3-0.1 0.6l-0.3 0.3q-0.2 0.2-0.4 0.1-33.8-32.6-62.6-63.2-27.9-29.7-43.1-68.5-15.6-40-11.2-83.1 1-9.6 2.5-20.4 0 0 0-0.1l-0.3-0.1q-0.2-0.1-0.3 0.1-9.1 40.5-14.4 70-16.4 89.9-32.9 182.4-2.3 13.1-3.3 18.1-0.7 3.8-3.7 8.9-1.6 2.7-5.7 7.6-23 27.5-44.5 56.2-6.5 8.7-10.7 16.1-8.1 14.1-11.6 20.3-12.7 22.3-30.4 43.8-13.9 17-30.8 37.1-4 4.8-5.7 7.5c-3.7 5.7-8 13-7.6 20.1q0.6 13.4 14.7 16.7 4.1 1 9.6 0.5 13.3-1.4 26.3-6.9 28.3-11.9 50.6-31.6 27-23.7 45.5-50 16.1-22.8 24.3-33.3 21.4-27.3 42.6-48.4 13.9-13.8 32.6-27.1 18.8-13.4 38.5-21.1 35.3-13.9 74.1-10.8 0.1 0.1 0.3 0.1 0.2 0 0.3 0.1 0.2 0.1 0.3 0.2 0.2 0 0.3 0.1 24.8 19.9 44 44.3c15.4 19.5 27.7 40.7 33.7 64.8 5.2 21.4 2.1 44.6-6 65.8q-3.1 7.9-7.9 18.3-9.8 20.9-22.3 40.1-22 33.9-46.7 65.7c-2.3 3-5.9 5.4-9.6 7.6q-16.9 9.7-34.4 19.8-0.1 0-0.2 0.1-0.1 0-0.2 0-0.2 0-0.3-0.1-0.1 0-0.2-0.1-0.5-0.3-0.4-1.4 5.3-34.9 6-39c0.4-2.7 0.5-3.7 2.4-5.8 29.3-30 51.4-68.1 60.1-109.3 8.3-39.2 1.7-78.9-18.3-113.7q-10.3-18-28.5-30.7-2.5-1.7-6.8-1.8-25.3-0.3-46.8 9.2c-13.7 6-27.7 15.4-39.2 25.6-44.6 40-72.6 100.3-64.1 160.9 3.7 26.3 14.5 51.4 30.2 72.9q5.4 7.4 13.2 15.6 11.1 11.6 24.4 21.8c7.7 6 17.9 8.7 28.3 9.3q2.9 0.2 0.5 1.8-36.2 24.2-66.7 45.5-7.1 5-16.1 11.8-104.9 78.9-177 188.6-0.2 0.3-0.4 0.4-0.3 0.2-0.6 0.2-0.3 0-0.5-0.1-0.3-0.1-0.5-0.4c-28.7-34.3-42.9-78-40.9-122.8q1.1-24 1.5-38.2c0-2.4-0.7-3.6-2.5-5.3q-12.6-11.5-22.2-24.8-20.5-28.7-23.5-64.2-2.8-34.7 12.1-65.8 8.8-18.3 22-35.6c13.7-17.9 28.7-33.2 43.2-49.3q25.3-28.1 47.7-57 5.3-6.8 11.8-16.1c36.7-51.9 51.5-74.8 81.2-110.6q0.8-1 1.1-2.1 7.8-33.4 4.5-70.7c-1.4-16.6-4.3-31.6-12.9-44.9q-6.8-10.5-18.3-10.3-3.9 0-14.2 4.3-19.4 8.2-38 15.4-9.3 3.5-19.4 3.5-10.3 0-15.7-3.3-7.7-4.8-9.1-15.3-0.6-4.9-1.5-17.6c-0.5-7.1-6.3-10.4-12.3-11.6-2.3-0.5-5.3-0.6-6.5-2.3q-2.2-3.2-2.4-5.7-0.1-2.4 0.6-8.2 0-0.3-0.1-0.5-0.1-0.2-0.2-0.4-0.2-0.2-0.4-0.3-0.2-0.1-0.4-0.1c-7.9-0.6-12.2-6-15.1-13.5q-0.8-2.1-0.6-6.8 0.2-4.2-0.5-8.3 0-0.2-0.1-0.4-0.1-0.2-0.3-0.3-0.2-0.2-0.4-0.3-0.2-0.1-0.4-0.1c-11.7-2.1-22.2-6.5-30.4-15-3.3-3.3-6.3-5.8-3.8-10 5.2-8.7 11.6-18.3 15.9-27.3q7.4-16 9.5-32.6 0.5-4.4-1.2-9.6-1-3.1-4.8-7.7-5.2-6.3-7.8-10.2-1.9-2.9-3.1-7.6c-6.3-24.2-8-48.6-6.8-73.5q1.6-31.3 6.8-61.2 0-0.5 0.5-0.4 47 3.5 85.9 29.5c23.8 16 43.4 34.2 58.3 57.8q2.7 4.4 8.8 15 0 0.1 0.1 0.1 0 0.1 0.1 0.1 0.1 0 0.1 0.1 0.1 0 0.2 0 0.5-0.1 0.3-0.6-6.2-18.2-15.3-33.7-17.5-29.9-46.7-48.8-39.1-25.5-85.3-22.1-0.2 0-0.4-0.1-0.1-0.1-0.2-0.3-0.1-0.2-0.1-0.4 0-0.2 0.1-0.3 23.8-33.7 59-56.1 32-20.3 70-28.1 11.3-2.4 19.7-3.5c52.1-7.2 105.5 5.3 147.4 37.6q9.8 7.5 23.2 19.6 0.1 0.1 0.3 0.2 0.2 0 0.3 0 0.2 0 0.3-0.1 0.2 0 0.3-0.2 5.3-6.9 12.2-14.7 17.9-20.3 42.4-29.7 24.5-9.5 50.7-2.7c21 5.5 37.8 17.1 51.7 33.7 23 27.5 36 63.6 39.8 99q0 0.1 0 0.1-0.1 0.1-0.1 0.2-0.1 0-0.1 0.1-0.1 0-0.2 0l-0.3 0.1q0 0-0.1 0 0 0-0.1-0.1 0 0 0 0-0.1-0.1-0.1-0.1-3.7-16.3-12.1-32.8c-14.6-28.8-39.7-53.4-70.4-64.6q-25.5-9.3-52.5-4.5-27.4 5-48.7 24.3-0.1 0.2 0 0.3l0.7 0.7q0.2 0.2 0.5 0 10.9-7.4 21.4-12.1c10.1-4.5 22.4-6.7 33.8-6.5q26.9 0.5 50.5 13.6c22.6 12.5 40.2 32.3 53.7 54.3q11.6 18.9 19.9 40.5 19.9 51.4 23.2 105.5c0.5 8.9 0.2 20-0.8 29.3q-2.4 23.3-8.8 44.3-3.3 11.2-15.7 50.3-9.5 30.1-12.6 58 0 0 0 0 0 0.1-0.1 0.1 0 0 0 0-0.1 0-0.1 0.1-0.2 0-0.2-0.2c-0.5-18.1 3.5-36.1 8.5-53.3q3.8-13.3 8.8-31c6.5-23.5 9.3-48 9.3-72.6q0-2.8-0.8-0.1-4 12.9-8.7 23.7-16.6 38.1-27.7 64.9c-10.7 25.8-17.4 54.2-16.4 82.3q1.7 43.9 31.7 73.6c6.5 6.4 14.2 12.1 22.5 18.1q0 0 0 0 0.1 0.1 0.1 0.1 0 0 0 0.1 0 0 0 0.1-0.1 0.3-0.6 0.1-30.8-13.5-54.8-36.9-20.5-19.9-23.4-48.4-0.8-8 0-18.1 1.1-12.9 3.6-25.2 10.9-52.3 30-106.4 0.6-1.7-0.1-0.1zm-162.3-220.2q7.9 39.9-0.3 77.7-2.5 12-9.5 26.6-0.1 0.1-0.1 0.2 0 0.2 0 0.3 0 0.1 0.1 0.2 0 0.1 0.1 0.2l0.3 0.3q0.3 0.3 0.6-0.1 8.2-12.1 13.5-26.3 16.9-45.3 3.1-91.9c-0.7-2.4-1.3-5.2-2.7-7.4q-1.4-2.2-4.7-4.3c-29.5-19-64.4-28.3-99.5-27.9q-81.8 0.9-147.3 48.5-0.6 0.4-0.1 0.9l0.2 0.2q0.1 0 0.1 0.1 0.1 0 0.2 0 0.1 0 0.1 0 0.1 0 0.2 0 29.4-15.7 63.4-23.1 39.3-8.6 76.9-8 22.8 0.3 45.8 5 31.3 6.4 57.8 26.2 1.5 1.2 1.8 2.6zm-294.8 259.8q-0.8 4.5 1.4 7.8 0.1 0.2 0.2 0.3 0.2 0.1 0.3 0.2 0.2 0.1 0.4 0.1 0.2 0.1 0.4 0.1h5.6q0.1 0 0.2-0.1 0.1 0 0.2-0.1 0.1-0.1 0.2-0.2 0-0.1 0-0.3v-1.8q0-0.5 0.5-0.6l8.2-3q11.3 4 23.3 1.6 0.5-0.1 0.7 0.5 0.2 0.6-0.6 1.7-2.2-0.6-3.5 0.1-8.8 5.1-20.3 14.5-0.4 0.4-0.5 0.9-1 4.2-1.1 8.3 0 4.4 2.9 6.5 3.2 2.2 8.5 0 7.2 2.5 10.2 8.6 1.1 2.4 2 8.9c0.9 6.6 2 14.4 4.4 20.1q2.1 4.9 6.8 3.4c5.3-1.8 11-5.7 15.5-9q40.5-30.2 80.3-62.9 10.2-8.5 19.9-17.7c10.3-9.8 17.4-16.2 22.2-27.2q5-11.1-1.5-21.4-5.8-9.1-14.2-16.2-0.1-0.1-0.1-0.3-0.1-0.1-0.1-0.3 0-0.1 0.1-0.3 0.1-0.1 0.2-0.2 14.8-9.3 21.7-24.7 10.2-23 6.3-48-1.3-8.6-2.9-12.9c-4.5-12.3-13.9-20-27.6-17.5q-17 3-27.4 16.8-8 10.6-6.5 24.5 0.2 1.7 1.3 12.5 0.7 6.9 0.6 12.5 0 12.9-1.9 26.6-0.3 2.4-0.6 0-0.5-4.2-2.3-8.9-17.1-43.6-56.2-68.7-3.4-2.1-17.3-10.2-16.4-9.4-35.2-20-11.4-6.4-17.2-10.1-12.5-8-27.8-20.2-1.5-1.1-2.8 0.1 0 0.1-0.1 0.2-0.1 0.1-0.1 0.2-0.1 0-0.1 0.1-0.1 0.1-0.1 0.3-6.9 35.3-5.3 70 0.6 13.7 4.3 26.4 0.1 0.3 0.3 0.5 0.2 0.3 0.5 0.4 0.3 0 0.7 0 0.3-0.1 0.5-0.3 5.6-5.3 15.3-14.7 4.1-4 7.4-5.3 24.3-9.9 47.4 1.2 0.1 0 0.2 0.1 0 0.1 0 0.2 0 0.1-0.1 0.2-0.1 0-0.2 0.1-3.2 0.4-10.5 0.3-5.3-0.1-11.9 2c-10.7 3.4-19.7 8.7-25 19.3q-1.2 2.5-0.3 3.6c1.6 1.9 4.3 0.8 6-0.6q5.3-4.3 13.5-4.2 0.2 0 0.3 0.1 0.3 0.1 0.2 0.2 0 0.1-0.1 0.1 0 0.1-0.1 0.1 0 0.1 0 0.1-0.1 0-0.1 0-5.3 1.2-10.8 3.4-0.3 0.2-0.6 0.4-0.3 0.3-0.4 0.7-0.1 0.4-0.1 0.8 0.1 0.4 0.3 0.7c2.3 3.5 6.8 6.9 11.6 5.8q10.9-2.5 21.7-5.1 1.5-0.4 1.7 0.7 0 0 0 0.1 0 0 0 0.1 0 0.1 0 0.1-0.1 0.1-0.1 0.1-9.7 18.5-26.4 29.8-1.6 1.1-2.7 0.8-0.6-0.2-0.2-0.6l4.5-4.5q0.2-0.1 0.2-0.4 0.1-0.2 0-0.4-0.1-0.2-0.3-0.3-0.1-0.2-0.4-0.2-7.6-0.8-8.5-0.8c-4-0.4-7.9-2.2-10.8-4q-4.6-2.9 0.7-1.6 2.4 0.6 8.4-0.9 1.4-0.3 2-1.3 1-1.5 0.9-2.3-1.5-8.4-9.3-12.1-9.2-4.5-18.8-6.9-3.1-0.8-1 1.6 10.3 12.2 10.8 27.3 0.3 8.7-3 19.7c-5 16.7-13.4 31.9-23.1 46.3q-0.2 0.2-0.2 0.5 0 0.2 0.1 0.4 0.1 0.3 0.3 0.4 0.2 0.2 0.5 0.2 4.9 0.5 9.4 0.1c12.1-0.9 24-9.2 34.5-0.1q0.2 0.2 0.5 0.2 0.3 0.1 0.6-0.1 0.3-0.1 0.5-0.4 0.1-0.2 0.1-0.5v-5.3q0-0.1 0.1-0.1 0.2-0.1 0.3-0.1 0.4 0.1 0.5 0.4 1.9 6-1.8 10.9-3.8 5.2-10.1 10.2-0.1 0.1-0.1 0.2-0.1 0.1-0.2 0.2 0 0.1-0.1 0.2 0 0.1 0 0.3z"/>
	<path id="Layer" class="s3" d="m1246.1 492.6q-0.3-1.4-1.8-2.6-26.5-19.8-57.8-26.2-23-4.7-45.7-5-37.7-0.6-77 8-34 7.4-63.4 23.1-0.1 0-0.2 0 0 0-0.1 0-0.1 0-0.2 0 0-0.1-0.1-0.1l-0.2-0.2q-0.5-0.5 0.1-0.9 65.6-47.6 147.3-48.5c35.1-0.4 70 8.9 99.5 27.9q3.3 2.1 4.7 4.3c1.4 2.2 2 5 2.7 7.4q13.8 46.6-3.1 91.9-5.3 14.2-13.5 26.3-0.3 0.4-0.6 0.1l-0.3-0.3q-0.1-0.1-0.1-0.2-0.1-0.1-0.1-0.2 0-0.1 0-0.3 0-0.1 0.1-0.2 7-14.6 9.5-26.6 8.2-37.8 0.3-77.7z"/>
	<path id="Layer" fill-rule="evenodd" class="s3" d="m763.2 590.2l0.1 0.3q0 0 0.1 0 9-4.1 19.2-3.9 3.2 0.1 13.5 0.8 13.2 1 24.2 7 1.7 0.9 1.2 2.7-0.1 0.6-1.4 2.1-7.4 8.3-12.8 17.8c-1.3 2.2-2.9 3.2-5.3 1.7q-14.5-9-30.8-13.6-1.9-0.6-0.5 0.8 20.1 18.2 33.1 43.1 0.1 0.2 0.3 0.3 0.2 0.1 0.5 0.1 0.2 0 0.4-0.2 0.2-0.1 0.3-0.3 1.7-4.3 3.6-9.7c4.4-12.3 6.3-19.1 13.6-26.4q0.2-0.2 0.4-0.3 0.3 0 0.6 0.1 0.2 0.1 0.4 0.3 0.1 0.2 0.1 0.5 0.5 29.9 9.5 58.6 6.5 20.5 9 27.7 0.9 2.4 0.5 3.7c-1 3.2-5.1 5.2-8 6.1q-9.4 2.9-19.1 1.6-5.4-0.7-9-5-2.8-3.5-6.6-10-0.2-0.3-0.4-0.5-0.3-0.2-0.6-0.4-0.3-0.1-0.6-0.2-0.3 0-0.6 0c-2.3 0.3-2.5 4.1-2.2 5.9 1.2 8.8 6.3 14.9 14.6 17.8q3.2 1.2 4.9 1.8 1.3 0.5 1.7 1.1 0.6 1.1-0.6 2.4-1.9 2-4.4 3-14.4 6.1-15.5 6.6-12.3 5.8-20.9 15.7-0.2 0.3-0.3 0.5 0 0.3 0.1 0.6 0.1 0.3 0.3 0.5 0.2 0.2 0.5 0.2 8.8 1.9 15 8.3c4.1 4.2 3.1 7.1 0.8 12.1q-2.7 5.8-2.9 7-2.5 11.9-2.7 13.8-0.5 4.3-2.2 6.2-3.3 3.7-5.3 4.4-16.3 5.8-26.8-6.8c-7.4-8.9-6.7-21.2-2.7-31.8q1.5-3.7 7.8-19.5 7.3-18.3 12.1-38.2 0.1-0.2 0-0.4-0.1-0.2-0.2-0.3-0.2-0.1-0.4-0.1-0.2 0-0.4 0c-2.8 1.4-4.8 3.5-7.6 5.1q-30.2 17.9-65.1 32.3c-1.3 0.6-2.1 0.7-3.2-0.2q-19.3-15.1-40.3-35.2c-1.5-1.4-2.5-2-2.6-4q-0.1-4.9-0.1-8.3 0.4-24.2 0.9-53.8 0.1-0.3 0-0.5-0.1-0.3-0.3-0.4-0.2-0.2-0.5-0.3-0.2-0.1-0.5-0.1-2.7 0.1-5.7 0.5-3.5 0.4-5.7-0.2-4.8-1.4-7.9-4.1c-11.6-10-17-25.5-19.3-40.6-2.5-17.3-3.5-34.6 0.4-50.5q2.6-10.3 8.6-17.2c4.9-5.6 11.9-7.9 19.7-7.7q20.3 0.7 33.9 15.8c9.6 10.7 11.3 25.9 8.6 40.1q-5.2 26.5-7.8 41.2-1 5.8 3.5 8.7 4.9 3.1 11.7 6.6c3.9 2 11.1 6.5 15.6 5.6q0.3-0.1 0.6-0.3 0.3-0.1 0.6-0.4 0.2-0.2 0.4-0.5 0.1-0.3 0.2-0.7 3.5-17.3 6.6-35.5 1.5-8.1 4.5-17.4c6.9-21.3 28-34.9 48.2-42.3q4.1-1.6 6.1-3.1 2.5-1.9 5.1-4.7c1.8-1.9 1.6-4.8 0.6-6.8q-13.1-27.3-20.7-55.9-1-4.1-1.4-7.3-0.3-3.6 0-7.3 0-0.4 0.2-0.6 0.2-0.3 0.5-0.5 0.3-0.1 0.6-0.1 0.4 0 0.6 0.1c19 10.2 42.3 17.9 63.6 18.5q13.4 0.3 27.4-2.2 0.3 0 0.5 0 0.2 0.1 0.3 0.2 0.2 0.2 0.2 0.4 0.1 0.2 0.1 0.4-5.6 57.7-1.6 115.4 0.1 2.5-0.8 4.6 0 0.1-0.2 0.2-0.1 0.1-0.2 0.2-0.2 0-0.3 0-0.2-0.1-0.3-0.2-4.7-4-9.8-7.9c-5.7-4.4-11.5-6.8-19.1-7.6q-29-3.2-53.9 12.6-0.3 0.1-0.1 0.3zm-111.1-31.3c0.5 4.2-0.6 9.1-2.3 13.9q-2.9 8.4-5.8 17.7c-3.1 9.9 1 22.6 5.6 31.4q0.6 1.3 1-0.1 2.4-8.8 6.1-18.8 1.6-4.2 8.9-21.7 5.9-14.3-0.8-28.4-4.2-8.7-12.1-14c-18.1-12-32.4 1.9-34.6 19.9q0 0.6 0.3 1.1 0 0.2 0.2 0.2 0.1 0.1 0.3 0.1 0.2 0 0.3-0.1 0.1-0.1 0.2-0.3 1.4-4.1 4-7.4 3.7-4.6 10-4.1 9.1 0.6 15.6 6 2.8 2.3 3.1 4.6z"/>
	<path id="Layer" fill-rule="evenodd" class="s3" d="m978.3 788.9q5.6-10.9 11.5-21.7 1.6-2.9 2.5-8.6 0.8-1.1 0.6-1.7-0.2-0.6-0.7-0.5-12 2.4-23.2-1.6-8.2-7.7-17.7-2.4l0.7-11q0-0.2 0-0.3 0.1-0.1 0.1-0.2 0.1-0.1 0.2-0.2 0-0.1 0.1-0.2 6.3-5 10.1-10.2 3.7-4.9 1.8-10.9-0.1-0.3-0.5-0.4-0.1 0-0.3 0.1-0.1 0-0.1 0.1v5.3q0 0.3-0.1 0.5-0.2 0.3-0.5 0.4-0.3 0.2-0.6 0.1-0.3 0-0.5-0.2c-10.5-9.1-22.4-0.8-34.5 0.1q-4.5 0.4-9.4-0.1-0.3 0-0.5-0.2-0.2-0.1-0.3-0.4-0.1-0.2-0.1-0.4 0-0.3 0.2-0.5c9.7-14.4 18.1-29.6 23.1-46.3q3.3-11 3-19.7-0.5-15.1-10.8-27.3-2.1-2.4 1-1.6 9.6 2.4 18.8 6.9 7.8 3.7 9.3 12.1 0.1 0.8-0.9 2.3-0.6 1-2 1.3-6 1.5-8.4 0.9-5.3-1.3-0.7 1.6c2.9 1.8 6.8 3.6 10.9 4q0.8 0 8.4 0.8 0.3 0 0.4 0.2 0.2 0.1 0.3 0.3 0.1 0.2 0 0.4 0 0.3-0.2 0.4l-4.5 4.5q-0.4 0.4 0.2 0.6 1.1 0.3 2.7-0.8 16.8-11.3 26.4-29.8 0 0 0.1-0.1 0 0 0-0.1 0-0.1 0-0.1 0-0.1 0-0.1-0.2-1.1-1.7-0.7-10.8 2.6-21.7 5.1c-4.8 1.1-9.3-2.3-11.6-5.8q-0.2-0.3-0.3-0.7 0-0.4 0.1-0.8 0.1-0.4 0.4-0.7 0.3-0.2 0.6-0.4 5.5-2.2 10.8-3.4 0 0 0.1 0 0 0 0-0.1 0.1 0 0.1-0.1 0.1 0 0.1-0.1 0.1-0.1-0.2-0.2-0.1-0.1-0.3-0.1-8.2-0.1-13.5 4.2c-1.7 1.4-4.4 2.5-6 0.6q-0.9-1.1 0.3-3.6c5.3-10.6 14.3-15.9 25-19.3q6.6-2.1 11.9-2 7.3 0.1 10.5-0.3 0.1-0.1 0.2-0.1 0.1-0.1 0.1-0.2 0-0.1 0-0.2-0.1-0.1-0.2-0.1-23.1-11.1-47.4-1.2-3.3 1.3-7.4 5.3-9.7 9.4-15.3 14.7-0.2 0.2-0.5 0.3-0.4 0-0.7 0-0.3-0.1-0.5-0.4-0.2-0.2-0.3-0.5-3.7-12.7-4.3-26.4-1.6-34.7 5.3-70 0-0.2 0.1-0.3 0-0.1 0.1-0.1 0-0.1 0.1-0.2 0.1-0.1 0.1-0.2 1.3-1.2 2.8-0.1 15.3 12.2 27.8 20.2 5.8 3.7 17.2 10.1 18.8 10.6 35.2 20 13.9 8.1 17.3 10.2 39.1 25.1 56.2 68.7 1.8 4.7 2.3 8.9 0.3 2.4 0.6 0 1.9-13.7 1.9-26.6 0.1-5.6-0.6-12.5-1.1-10.8-1.3-12.5-1.5-13.9 6.5-24.5 10.4-13.8 27.4-16.8c13.7-2.5 23.1 5.2 27.6 17.5q1.6 4.3 2.9 12.9 3.9 25-6.3 48-6.9 15.4-21.7 24.7-0.1 0.1-0.2 0.2-0.1 0.2-0.1 0.3 0 0.2 0.1 0.3 0 0.2 0.1 0.3 8.4 7.1 14.2 16.2 6.5 10.3 1.5 21.4c-4.8 11-11.9 17.4-22.2 27.2q-9.7 9.2-19.9 17.7-39.8 32.7-80.3 62.9c-4.5 3.3-10.2 7.3-15.5 9q-4.7 1.5-6.8-3.4c-2.4-5.7-3.5-13.5-4.4-20.1q-0.9-6.5-2-8.9-3-6.1-10.2-8.6zm150.1-194.7q3.2 0.2 5.9 0.6c4.2 0.7 6.2 4.4 8.5 8.1q1.5 2.5 1.1-0.3-0.9-7.6-5.5-13.4c-6-7.3-17.3-8.8-25-3.8-11.2 7.4-13.6 20-12.1 33.2q0.6 5.3 4.6 16.3 2.7 7.2 7.8 22 0 0.1 0.1 0.2 0.1 0.1 0.2 0.2 0.2 0 0.3 0 0.1 0 0.2-0.1 0.4-0.3 0.8-1.4 2.2-7.1 4.4-16.6c0.8-3.1 0.4-7-0.5-9.4q-1.8-5.2-3.7-10.4-2.6-7.4-2.6-10.6 0-9.6 9.7-13.5 3.2-1.3 5.8-1.1z"/>
	<path id="Layer" class="s4" d="m652.1 558.9q-0.3-2.3-3.1-4.6-6.5-5.4-15.6-6-6.3-0.5-10 4.1-2.6 3.3-4 7.4-0.1 0.2-0.2 0.3-0.1 0.1-0.3 0.1-0.2 0-0.3-0.1-0.2 0-0.2-0.2-0.3-0.5-0.3-1.1c2.2-18 16.5-31.9 34.6-19.9q7.9 5.3 12.1 14.1 6.7 14 0.8 28.3-7.3 17.5-8.9 21.7-3.7 10-6.1 18.8-0.4 1.4-1 0.1c-4.6-8.8-8.6-21.5-5.6-31.4q2.9-9.3 5.8-17.7c1.7-4.8 2.8-9.7 2.3-13.9z"/>
	<path id="Layer" class="s4" d="m1122.6 595.3q-9.7 3.9-9.7 13.5 0 3.2 2.6 10.6 1.9 5.2 3.7 10.4c0.9 2.4 1.3 6.3 0.5 9.4q-2.2 9.5-4.4 16.6-0.4 1.1-0.8 1.4-0.1 0.1-0.2 0.1-0.1 0-0.3 0-0.1-0.1-0.2-0.2-0.1-0.1-0.1-0.2-5.1-14.8-7.8-22-4-11-4.6-16.3c-1.5-13.2 0.9-25.8 12.1-33.2 7.7-5 19-3.5 25 3.8q4.6 5.8 5.5 13.4 0.4 2.8-1.1 0.3c-2.3-3.7-4.3-7.4-8.5-8.1q-2.7-0.4-5.9-0.6-2.6-0.1-5.8 1.1z"/>
	<path id="Layer" fill-rule="evenodd" class="s5" d="m598.6 603q-1.9 3-2.1 6.5-2.3 57 4.4 114.5 9 76.9 21.3 152.8 0.4 2.2 1 3.8 1 2.6 1.2-0.2l3.3-68.1q10.8 41.2 18.4 82.6 2.3 12.9 3.4 24.3 1.1 11.1-0.3 26.8-0.3 2.9 1.6 5.8 30.1 45.3 50.5 76.2 7.6 11.6 10.9 16.9 21 34.1 39.9 74.7 16.6 35.9 24.1 71.4 2.4 11.3 3.4 19.7c4.2 32.4-5.7 64.9-37.8 78.4-11 4.7-23 6-35.9 4.9q-20.6-1.8-40.1-7.4 0 0 0 0-0.1 0-0.1 0 0 0 0 0-0.1 0.1-0.1 0.1l-0.4 0.2q-0.1 0.1-0.2 0.2 0 0.2 0 0.3 0 0.1 0.1 0.2 0.1 0.1 0.2 0.2 22.7 8.4 50.9 19.5 18.9 7.4 28 11.6 14 6.3 27.9 17.6c43.7 35.3 54.3 99.7 33.2 149.5q-7.8 18.6-20.1 37l-7 9.8q-0.1 0.1-0.3 0.2-0.1 0.1-0.3 0.1-0.1 0-0.3 0-0.1-0.1-0.3-0.2-2.4-2.2-3.3-4.7-12.5-24.2-32.1-42.8-25.5-28.4-51.2-56.8-21.4-23.5-51.5-49.9-6.9-6.1-15.2-12.9-32.9-26.7-65.2-49.6-15.7-11.2-54-36.6-35.6-23.6-68.8-47.2c-29.9-21.3-59.2-44.8-84.9-69.7-19.4-19-36.1-39.9-48.9-63.5q-5.3-9.5-8.5-18.1-15.6-41.8-0.5-83.9c8.8-24.7 25-47.1 43.8-66.5q13.3-13.7 51.6-53.4 28.1-29.2 51.7-62.3c20.9-29.3 37.9-60.2 49.2-96q2.1-0.9 4.2-1.9 2.1-1 4.3-1.3 4.4-0.5 5.8-0.8 9.8-2 18.9-8.9 12.6-9.5 22.5-20.1 5.9-6.3 12.6-15.5 16.3-22.5 28.3-47.9 8.3-17.5 11-23.4 0.2-0.4 0.6 0 1.2 1.5 1.2 3.8zm-40.9 279.4q27.7 28.3 51 62.5 0.1 0.1 0.2 0.2 0.1 0 0.2 0 0.1 0.1 0.3 0.1 0.1-0.1 0.3-0.1l0.3-0.2q0 0 0.1-0.1 0 0 0.1-0.1 0-0.1 0-0.2 0-0.1-0.1-0.1-30.7-63.1-63.3-125.6-0.2-0.4-0.5-0.6-0.3-0.3-0.6-0.4-0.4-0.2-0.8-0.2-0.4 0-0.8 0.1-12 4.4-25.1 4.9-21.1 0.8-42.5-3.9-0.8-0.2-0.6 0.5 0 0.1 0.1 0.1 0 0 0 0.1 0 0 0.1 0 0 0 0 0.1 22.8 12.1 42.2 27 18 14 39.4 35.9zm-53.4 66.6c22 16.3 42.1 36.1 58.1 58.2q27.2 37.5 43.6 80.3 9.3 24.5 13 46.5 4.1 24.4-0.3 50.6 0 0.2 0.2 0.2l0.5 0.3q0.2 0.1 0.3-0.1 12.9-37.2 8.6-76.2-4.7-43.5-26.4-82.3-19.3-34.7-50.5-59.1-36.3-28.3-81.7-40.5-0.5-0.1-0.7 0-0.8 0.2-0.1 0.5 16.7 7.7 35.4 21.6zm100.9 256.3c-17.7 16.1-37.4 28.1-60.2 35.6-6.4 2.1-11.9 3.1-18.1 4.2q-0.2 0-0.4 0.2-0.2 0.1-0.3 0.4-0.1 0.2 0 0.4 0 0.3 0.1 0.5 0.8 1 2.7 1.6 30.8 10.2 51 16.4 0.1 0.1 0.3 0 0.2 0 0.4 0 0.2-0.1 0.3-0.3 0.2-0.1 0.2-0.3l26-58.5q0.1-0.1 0.1-0.2 0-0.2-0.1-0.3 0-0.1-0.1-0.1-0.1-0.1-0.2-0.1-0.9-0.2-1.7 0.5z"/>
	<path id="Layer" class="s3" d="m598.6 603q3.3 11.6 5.9 17.7 7.3 17 22.1 27.6 0.3 0.2 0.5 0.5 0.2 0.3 0.3 0.6 0.1 0.3 0.1 0.6 0 0.4-0.1 0.7-8.4 26.1-21.6 50.3-1.3 2.4-0.2 7.3 14 64.7 18.8 86.5 0.9 4.1 1.7 8.8 0.8 4.5 1.6 8.7l-3.3 68.1q-0.2 2.8-1.2 0.2-0.6-1.6-1-3.8-12.3-75.9-21.3-152.8-6.7-57.5-4.4-114.5 0.2-3.5 2.1-6.5z"/>
	<path id="Layer" class="s5" d="m969 754.8l-8.3 3q-0.5 0.1-0.5 0.6v1.8q0 0.2 0 0.3-0.1 0.1-0.2 0.2-0.1 0.1-0.2 0.1-0.1 0.1-0.2 0.1h-5.6q-0.2 0-0.4-0.1-0.2 0-0.4-0.1-0.1-0.1-0.3-0.2-0.1-0.1-0.2-0.3-2.2-3.3-1.4-7.8 9.5-5.3 17.7 2.4z"/>
	<path id="Layer" class="s5" d="m992.3 758.6q-0.9 5.6-2.5 8.6-5.9 10.8-11.5 21.6-5.3 2.3-8.5 0-2.9-2-2.9-6.4 0.1-4.1 1.1-8.3 0.1-0.5 0.5-0.9 11.5-9.4 20.3-14.5 1.3-0.7 3.5-0.1z"/>
	<path id="Layer" class="s3" d="m557.7 882.4q-21.4-21.9-39.4-35.9-19.4-14.9-42.2-27 0-0.1 0-0.1-0.1 0-0.1 0 0-0.1 0-0.1-0.1 0-0.1 0-0.2-0.8 0.6-0.6 21.4 4.7 42.5 3.9 13.1-0.5 25.1-4.9 0.4-0.1 0.8-0.1 0.4 0 0.8 0.2 0.3 0.1 0.6 0.4 0.3 0.2 0.5 0.6 32.6 62.5 63.3 125.6 0.1 0 0.1 0.1 0 0.1 0 0.2-0.1 0.1-0.1 0.1-0.1 0.1-0.1 0.1l-0.3 0.2q-0.2 0-0.3 0.1-0.2 0-0.3-0.1-0.1 0-0.2 0-0.1-0.1-0.2-0.2-23.3-34.1-51-62.5z"/>
	<path id="Layer" class="s3" d="m562.4 1007.2c-16-22.1-36.1-41.9-58.1-58.2q-18.7-13.9-35.4-21.6-0.7-0.3 0.1-0.6 0.2 0 0.7 0.1 45.4 12.2 81.7 40.5 31.2 24.4 50.5 59.1 21.7 38.8 26.4 82.3 4.3 39-8.6 76.2-0.1 0.2-0.3 0.1l-0.5-0.3q-0.2 0-0.2-0.2 4.4-26.2 0.3-50.6-3.7-22-13-46.5-16.4-42.8-43.6-80.3z"/>
	<path id="Layer" class="s4" d="m545 1240.9c22.8-7.5 42.5-19.5 60.3-35.6q0.7-0.7 1.6-0.5 0.1 0 0.2 0.1 0.1 0 0.1 0.1 0.1 0.1 0.1 0.3 0 0.1-0.1 0.2l-25.9 58.5q-0.1 0.2-0.3 0.3-0.1 0.2-0.3 0.3-0.2 0-0.4 0-0.2 0.1-0.3 0-20.2-6.2-51-16.4-1.9-0.6-2.6-1.6-0.2-0.2-0.2-0.5-0.1-0.2 0-0.4 0.1-0.3 0.3-0.4 0.2-0.2 0.4-0.2c6.2-1.1 11.7-2.1 18.1-4.2z"/>
	<path id="Layer" class="s4" d="m773.7 1528.3l-32.1-42.9q19.6 18.6 32.1 42.9z"/>
</svg>