<svg version="1.2" xmlns="http://www.w3.org/2000/svg" viewBox="0 0 1024 1024" width="1024" height="1024">
	<title>niko1_Logo_minimalist_fit_Man_and_woman_logo_black_background__b4b18fd8-45dc-404b-85fb-995239e97fef-svg</title>
	<style>
		.s0 { fill: none;stroke: #808080;stroke-width: 2 } 
		.s1 { fill: none;stroke: #770a12;stroke-width: 2 } 
		.s2 { fill: #010101 } 
		.s3 { fill: #ffffff } 
		.s4 { fill: #ff5043 } 
	</style>
	<g id="Layer">
		<path id="Layer" fill-rule="evenodd" class="s0" d="m512.3 237.8l4.6-0.3q1.9-0.2 0.4-1.1-4.1-2.7-8.4-6.5-2.5-2.2-11.1-6.6-17.8-9-34 1.6c-6.9 4.5-9.4 14.8-8.9 22.4 0.2 4 1.4 12.1 1.2 16.9q-0.7 14.4-10 24.9-2.2 2.5-6.5 5.9-5.3 4.2-7 5.4-11.4 7.6-14 10-9.9 9.1-12.5 22.4-2 10-3.6 14.2-16.5 44.2-19.1 51.1-9.2 24.3-12.3 34.8c-5.6 18.5-9.8 37.4-14 56.3-1.5 6.9-3.9 15.5-5.2 20.9q-1 4.1-0.2 6.8c2.6 9.7 8.2 18.7 14 26.6q1.4 2 0.7-0.4c-1.3-4.3-2.4-5.7-1.5-9.7q1.6-7 3.9-12.8 1.1-3 1.9 0.1 0.1 0.4 1.1 1.3 0.4 0.3 0.4-0.2 0.5-9-0.1-12.8-0.2-1.2-2-5.4c-1.2-2.9-1.1-4.8-0.3-7.6q2.4-8.4 6.1-17.1 14.5-34.1 33.6-66.1 7.7-12.9 22.5-35 4.3-6.4 12-21.1 0.2-0.3 1.3-3.9 0.1-0.3 0.3-0.4 0.2 0 0.3 0 0.4 0 0.5 0.5c1.4 7.7-1.4 13.8-4.8 20.3q-0.1 0.1-0.1 0.3-0.1 0.2-0.1 0.4 0.1 0.2 0.1 0.4 0.1 0.1 0.2 0.3c9.7 11.9 16.5 26.8 15.4 42.2-1 13.1-9.1 23.7-19.4 31.2q-2.6 1.9-7.8 5.2c-13.8 8.6-22.2 22.7-24.2 38.8q-1.1 9.5 1.3 18.4 3.4 12.4 4.7 19.7c4.6 24.8-1.4 48.7-11.5 72.6q-10.8 25.6-25.5 52.4-6.6 12-9.3 17.7-15.2 31.8-24.3 65.7-6.2 23.1-7.6 40.9-1.2 14.9 0.6 30.6 0.2 1.7 0.5 0.1c0.7-3.6 0.8-7.2 1.7-11.4q3.6-17.2 8.7-30.2 9.6-24.8 24.7-49.6 16.5-27.3 32.2-48.3 21.7-29.1 27.9-37.6 11.7-16.3 25.4-38.5 11.2-18.1 16.7-36.1c2.8-9.1 5.1-16.8 6.4-25.4q1-6.5 1-19.5 0-11.7 0.2-19.5 0.5-25.1 9.1-48c3.6-9.5 11-20.5 14.8-30.4q5.1-13.4 6.1-27.7 0.5-7.3 0.9-10.2 1-7.8 1-10.2 0.2-12.5-4.2-21.4-4.4-9-10.6-16.2-4.6-5.3-14.2-15.5-3.9-4.3-5.3-8c-2.3-6.2-0.1-13.5 3.6-19.1q0.2-0.3 0.5-0.5 0.3-0.2 0.6-0.3 0.3-0.1 0.7-0.1 0.3 0 0.7 0.2 6.1 2.3 11.8 4.3 4.6 1.5 6-2.6 1.1-3.3 3-6 2-2.9 2.4-3.6 0.9-1.9 1.5-4.1 0.1-0.3 0.2-0.5 0.1-0.3 0.3-0.5 0.2-0.2 0.4-0.3 0.2-0.2 0.5-0.3l3.8-1.5q0.3-0.1 0.4-0.2 0.2-0.2 0.3-0.4 0-0.2 0-0.4 0-0.3-0.1-0.5-1.9-4.2-2.6-7.8-0.2-1.5 0.6-3.8 0.8-2.3 0.8-5.9-0.1-9.3-0.7-14.1 0-0.6 0.5-0.6z"/>
		<path id="Layer" fill-rule="evenodd" class="s1" d="m632.3 409.4q-1.2 2.4-3.3 4.6-13.2 13.1-28.1 23.5-0.1 0.1-0.3 0.3-0.2 0.1-0.3 0.3-0.1 0.2-0.1 0.5-0.1 0.2-0.1 0.4-0.3 20.9-17.5 31.8-4.9 3-13.6 7.1-12.8 5.9-24 16.8c-11.1 10.8-18.3 25.4-17.5 41.1q0.3 6.6 1.7 16 4.3 28.7-9.4 54-8.7 16-21.9 25.6-33.5 24.3-55.4 44.2-9.3 8.4-14.6 13.7-9.7 9.7-19.2 19.9-16.8 17.8-31.8 39.7-13.5 19.5-21.6 37.9-0.1 0.3 0 0.5l0.2 0.5q0 0 0 0 0 0.1 0.1 0.1 0 0 0 0 0-0.1 0-0.1 6.8-11.2 9.9-15.3 10.9-14.8 25-28.2 24.3-23 51.9-41.1 5.4-3.5 17.1-10.4 26.3-15.7 49.4-29.9 20.7-12.7 39.4-28.1 34.8-28.6 52.5-69.5 5-11.7 8.6-23 2.4-7.4 4.9-19.4 1.1-5.4 4.4-21.7 4.9-23.9 14.2-46.3 3.2-7.8 3.6-19.6 0.1-3.5-0.9-9.5-0.9-6-1.4-9.5-0.5-4.1 0-6.9 0-0.1 0-0.3 0.1-0.1 0.1-0.2 0.1-0.1 0.2-0.2 0-0.1 0.1-0.2 3.5-2.9 5.9-6.3 3.6-5 3.9-10.3c0.4-8.8-6.6-17.4-13.5-22.4-4.2-3-10.6-6.6-14.2-10q-12.8-12.4-10.3-31.4 0.4-2.9 2.7-6.3 2.4-3.6 6.2-2.1 6.2 2.5 7.2 2.9 0.4 0.2 0.9 0.2 0.5 0 0.9-0.2 0.4-0.1 0.7-0.4 0.2-0.3 0.3-0.7l2.2-8.8q0.1-0.2 0.1-0.3 0.1-0.1 0.2-0.2 0.1-0.1 0.2-0.2 0.1 0 0.2-0.1c3.2-1.3 2.7-3.7 3.3-6.3q0.3-1.4 1.6-1.9l4-1.6q0.2-0.1 0.3-0.2 0.2-0.2 0.2-0.4 0.1-0.2 0.1-0.4 0-0.2-0.2-0.4-1.3-2.1-3-5.4-1.3-2.4-1.2-3.3c2.5-15.2-0.6-27.7-15.5-33.9q-8.1-3.4-18.4-1.7-22.3 3.7-28.2 25.6 0 0.2-0.2 0.5-0.1 0.2-0.3 0.4-0.2 0.1-0.5 0.2-0.2 0.2-0.5 0.2-7 0.7-11.1 6.3-6.4 8.4-7.7 18.5c-1.6 11.2 3.1 23.7 12.6 30.1q1.3 0.8 2.5 1.2 0.8 0.2 0.3-0.5-8.5-12.3-5.8-27.5 2.1-11.4 8.9-19.6 2-2.4 2.7 0.6c0.5 2.5 1.2 6 2.3 8.5q2 4.2 5 8.2 0.1 0.2 0.2 0.2 0.2 0.1 0.4 0.1 0.2 0 0.4-0.1 0.1-0.1 0.2-0.3l2.8-4.8q0.2-0.3 0.5-0.4 0.2-0.2 0.6-0.2 0.3-0.1 0.6 0.1 0.3 0.1 0.6 0.4c6.6 8.3 5.7 18.6 0 27.4q-2.4 3.6-7.8 6-0.7 0.3 0.1 0.4 9.1 1.9 13.4 9.4 4.3 7.6 2.9 17-1.6 10.7-7.8 21.7-1.3 2.3-6.5 10.9-0.1 0.2-0.1 0.4-0.1 0.2-0.1 0.4 0.1 0.2 0.1 0.4 0.1 0.2 0.3 0.4 9 10.2 14.9 20.5 0.1 0.2 0.2 0.4 0.2 0.1 0.4 0.2 0.2 0.1 0.4 0.1 0.3 0.1 0.5 0 5.5-1 9-1.9 3.7-0.9 17-5.6 4.2-1.4 8.3-4.1 3-2 1.4 1.3z"/>
		<path id="Layer" fill-rule="evenodd" class="s1" d="m557.4 426.2q12-22.4 20.5-38.8 3.1-5.8 6.8-14.9c3-7.2 5.2-16.8-0.2-23.1-5.5-6.4-14.9-5.8-19.4 1.5q-1.4 2.4-2.3 4.9-3 8.8-4.4 12.8-2.1 5.8-4.8 12.5-5.3 13.3-8.2 21-7.3 19.4-10.8 35.5-1.3 6.3 1.7 10.6 1.8 2.6 4.7 2.5 3.5-0.1 8.6-1.3 15.2-3.8 32.6-11.9 20.6-9.5 38.5-22.9 0.1 0 0.1-0.1 0 0 0-0.1 0 0 0-0.1 0 0-0.1-0.1-0.2-0.1-0.3 0-0.2 0.1-0.2 0.1-28.2 10.8-58.7 12.8-2.2 0.1-3.6 0-0.2-0.1-0.3-0.1-0.1-0.1-0.2-0.2-0.1-0.2-0.1-0.3 0-0.2 0.1-0.3z"/>
		<path id="Layer" fill-rule="evenodd" class="s1" d="m585.6 614.3q-0.2 0.2-6.5 9.3c-7.3 10.6-15.8 19.7-25.8 27.9q-0.2 0.1-0.3 0.3-0.2 0.2-0.3 0.4-0.1 0.3-0.1 0.5 0 0.2 0 0.5 6.5 55.8 33.1 104.2c7.7 14 17.3 27.6 28.5 39 4.6 4.7 10.9 9.5 16.4 14.2q0.2 0.2 0.3 0l0.1-0.3q0.1 0 0-0.1-12-12.4-20.7-28.2-21.4-39-27.2-83.1-4.7-36.7 0.8-73.6 0.2-1.5 1-5.5 0.9-4.1 0.9-5.4 0.1-0.5-0.2-0.1z"/>
		<path id="Layer" fill-rule="evenodd" class="s1" d="m478.9 712.2q-0.8 1.6-2.4 5.7-8.6 21.3-11.9 42.7-1.3 8.5-1.3 21.7-0.1 13.8 3.3 28.1 0 0.1 0.1 0.1 0 0 0.1 0 0 0 0 0 0.1-0.1 0.1-0.1-0.1-9.2-0.1-9.4-0.1-14.4 4.6-31.4 6.6-23.9 18.7-47.2 12.8-24.7 28.4-46.5 0.7-1-0.4-0.3-22.6 14.1-29.5 18.3-1.4 0.8-2.5 3-2.3 4.7-6.2 12.7c-0.4 0.9-0.5 1.7-0.9 2.6z"/>
	</g>
	<path id="Layer" fill-rule="evenodd" class="s2" d="m1024 0v1024h-1024v-1024zm-511.7 237.8l4.6-0.3q1.9-0.2 0.4-1.1-4.1-2.7-8.4-6.5-2.5-2.2-11.1-6.6-17.8-9-34 1.6c-6.9 4.5-9.4 14.8-8.9 22.4 0.2 4 1.4 12.1 1.2 16.9q-0.7 14.4-10 24.9-2.2 2.5-6.5 5.9-5.3 4.2-7 5.4-11.4 7.6-14 10-9.9 9.1-12.5 22.4-2 10-3.6 14.2-16.5 44.2-19.1 51.1-9.2 24.3-12.3 34.8c-5.6 18.5-9.8 37.4-14 56.3-1.5 6.9-4 15.5-5.2 20.9q-1 4.1-0.2 6.8c2.6 9.7 8.2 18.7 14 26.6q1.4 2 0.7-0.4c-1.3-4.3-2.4-5.7-1.5-9.7q1.6-7 3.8-12.8 1.2-3 2 0.1 0.1 0.4 1 1.3 0.4 0.3 0.5-0.2 0.5-9-0.1-12.8-0.2-1.2-2-5.4c-1.2-2.9-1.1-4.8-0.3-7.6q2.4-8.4 6.1-17.1 14.5-34.1 33.6-66.1 7.7-12.9 22.5-35 4.3-6.4 12-21.1 0.2-0.3 1.3-3.9 0.1-0.3 0.3-0.4 0.2 0 0.3 0 0.4 0 0.5 0.5c1.4 7.7-1.4 13.8-4.8 20.3q-0.1 0.1-0.1 0.3-0.1 0.2-0.1 0.4 0.1 0.2 0.1 0.4 0.1 0.1 0.2 0.3c9.7 11.9 16.5 26.8 15.4 42.2-1 13.1-9.1 23.7-19.4 31.2q-2.6 1.9-7.8 5.2c-13.8 8.6-22.2 22.7-24.2 38.8q-1.1 9.5 1.3 18.4 3.4 12.4 4.7 19.7c4.5 24.8-1.4 48.7-11.5 72.6q-10.8 25.6-25.5 52.4-6.6 12-9.3 17.7-15.2 31.8-24.3 65.7-6.2 23.1-7.6 40.9-1.2 14.9 0.6 30.6 0.2 1.7 0.5 0.1c0.7-3.6 0.8-7.2 1.7-11.4q3.6-17.2 8.6-30.2 9.7-24.8 24.8-49.6 16.5-27.3 32.2-48.3 21.7-29.1 27.9-37.6 11.7-16.3 25.4-38.5 11.2-18.1 16.7-36.1c2.8-9.1 5.1-16.8 6.4-25.4q1-6.5 1-19.5 0-11.7 0.2-19.5 0.5-25.1 9.1-48c3.6-9.5 11-20.5 14.8-30.4q5.1-13.4 6.1-27.7 0.5-7.3 0.9-10.2 1-7.8 1-10.2 0.2-12.5-4.2-21.4-4.4-9-10.6-16.2-4.7-5.3-14.2-15.5-3.9-4.3-5.3-8c-2.4-6.2-0.1-13.5 3.6-19.1q0.2-0.3 0.5-0.5 0.3-0.2 0.6-0.3 0.3-0.1 0.7-0.1 0.3 0 0.7 0.2 6.1 2.3 11.8 4.3 4.6 1.5 6-2.6 1.1-3.3 3-6 2-2.9 2.4-3.6 0.9-1.9 1.5-4.1 0.1-0.3 0.2-0.5 0.1-0.3 0.3-0.5 0.2-0.2 0.4-0.3 0.2-0.2 0.5-0.3l3.8-1.5q0.3-0.1 0.4-0.2 0.2-0.2 0.3-0.4 0-0.2 0-0.4 0-0.3-0.1-0.5-1.9-4.2-2.6-7.8-0.2-1.5 0.6-3.8 0.8-2.3 0.8-5.9-0.1-9.3-0.7-14.1-0.1-0.6 0.5-0.6zm120 171.6q-1.2 2.4-3.3 4.6-13.2 13.1-28.1 23.5-0.1 0.1-0.3 0.3-0.2 0.1-0.3 0.3-0.1 0.2-0.1 0.5-0.1 0.2-0.1 0.4-0.3 20.9-17.6 31.8-4.8 3-13.5 7.1-12.8 5.9-24 16.8c-11.1 10.8-18.3 25.4-17.5 41.1q0.3 6.6 1.7 16 4.3 28.7-9.4 54-8.7 16-21.9 25.6-33.5 24.3-55.4 44.2-9.3 8.4-14.6 13.7-9.7 9.7-19.2 19.9-16.8 17.8-31.8 39.7-13.5 19.5-21.6 37.9-0.1 0.3 0 0.5l0.2 0.5q0 0 0 0 0 0.1 0.1 0.1 0 0 0 0 0-0.1 0-0.1 6.8-11.2 9.9-15.3 10.9-14.8 25-28.2 24.3-23 51.9-41.1 5.4-3.5 17.1-10.4 26.3-15.7 49.4-29.9 20.7-12.7 39.4-28.1 34.8-28.6 52.5-69.5 5-11.7 8.6-23 2.3-7.4 4.9-19.4 1.1-5.4 4.4-21.7 4.9-24 14.2-46.3 3.2-7.8 3.6-19.6 0.1-3.5-0.9-9.5-0.9-6-1.4-9.5-0.5-4.1-0.1-6.9 0.1-0.1 0.1-0.3 0.1-0.1 0.1-0.2 0.1-0.1 0.2-0.2 0-0.1 0.1-0.2 3.5-2.9 5.9-6.3 3.6-5 3.9-10.3c0.4-8.8-6.6-17.4-13.5-22.4-4.2-3-10.6-6.6-14.2-10q-12.8-12.4-10.3-31.4 0.4-2.9 2.7-6.3 2.4-3.6 6.2-2.1 6.2 2.5 7.2 2.9 0.4 0.2 0.9 0.2 0.5 0 0.9-0.2 0.4-0.1 0.7-0.4 0.2-0.3 0.3-0.7l2.2-8.8q0.1-0.2 0.1-0.3 0.1-0.1 0.2-0.2 0.1-0.1 0.2-0.2 0.1 0 0.2-0.1c3.2-1.3 2.7-3.7 3.3-6.3q0.3-1.4 1.6-1.9l4-1.6q0.2-0.1 0.3-0.2 0.2-0.2 0.2-0.4 0.1-0.2 0.1-0.4 0-0.2-0.2-0.4-1.3-2.1-3-5.4-1.3-2.4-1.2-3.3c2.5-15.3-0.6-27.7-15.5-33.9q-8.1-3.4-18.4-1.7-22.3 3.7-28.2 25.6 0 0.2-0.2 0.5-0.1 0.2-0.3 0.4-0.2 0.1-0.5 0.2-0.2 0.2-0.5 0.2-7 0.7-11.1 6.3-6.4 8.4-7.7 18.5c-1.6 11.2 3.1 23.7 12.6 30.1q1.3 0.8 2.5 1.2 0.8 0.2 0.3-0.5-8.6-12.3-5.8-27.5 2.1-11.4 8.9-19.6 2-2.4 2.7 0.6c0.5 2.5 1.2 6 2.3 8.5q2 4.2 5 8.2 0.1 0.2 0.2 0.2 0.2 0.1 0.4 0.1 0.2 0 0.4-0.1 0.1-0.1 0.2-0.3l2.8-4.8q0.2-0.3 0.5-0.4 0.2-0.2 0.6-0.2 0.3-0.1 0.6 0.1 0.3 0.1 0.5 0.4c6.7 8.3 5.8 18.6 0.1 27.3q-2.4 3.7-7.8 6.1-0.7 0.3 0.1 0.4 9.1 1.8 13.4 9.4 4.3 7.6 2.9 17-1.6 10.7-7.8 21.7-1.3 2.3-6.5 10.9-0.1 0.2-0.1 0.4-0.1 0.2-0.1 0.4 0.1 0.2 0.1 0.4 0.1 0.2 0.3 0.4 8.9 10.2 14.9 20.5 0.1 0.2 0.2 0.4 0.2 0.1 0.4 0.2 0.2 0.1 0.4 0.1 0.3 0.1 0.5 0 5.5-1 9-1.9 3.7-0.9 17-5.6 4.2-1.4 8.3-4.1 3-2 1.4 1.3zm-74.9 16.8q12-22.4 20.5-38.8 3.1-5.8 6.8-14.9c3-7.2 5.2-16.8-0.2-23.1-5.5-6.4-14.9-5.8-19.4 1.5q-1.4 2.4-2.3 4.9-3 8.8-4.4 12.8-2.1 5.8-4.8 12.5-5.3 13.3-8.2 20.9-7.3 19.5-10.8 35.6-1.3 6.3 1.6 10.6 1.9 2.6 4.8 2.5 3.5-0.1 8.6-1.3 15.2-3.8 32.6-11.9 20.6-9.5 38.5-22.9 0.1 0 0.1-0.1 0 0 0-0.1 0 0 0-0.1 0 0-0.1-0.1-0.2-0.1-0.3 0-0.2 0.1-0.2 0.1-28.2 10.8-58.7 12.8-2.2 0.1-3.6 0-0.2-0.1-0.3-0.1-0.1-0.1-0.2-0.2-0.1-0.2-0.1-0.3 0-0.2 0.1-0.3zm28.2 188.1q-0.2 0.2-6.5 9.2c-7.2 10.6-15.8 19.8-25.8 28q-0.2 0.1-0.3 0.3-0.2 0.2-0.3 0.4-0.1 0.3-0.1 0.5 0 0.2 0 0.5 6.5 55.8 33.1 104.2c7.7 14 17.3 27.6 28.5 39 4.6 4.7 10.9 9.5 16.4 14.2q0.2 0.2 0.3 0l0.1-0.3q0.1 0 0-0.1-12-12.4-20.7-28.2-21.4-39-27.2-83.1-4.7-36.7 0.8-73.6 0.2-1.5 1-5.5 0.9-4.1 1-5.4 0-0.5-0.3-0.1zm-106.7 97.9q-0.8 1.6-2.4 5.7-8.6 21.3-11.9 42.7-1.3 8.5-1.4 21.7 0 13.8 3.4 28.1 0 0.1 0.1 0.1 0 0 0.1 0 0 0 0 0 0.1-0.1 0.1-0.1-0.1-9.2-0.1-9.4-0.1-14.4 4.6-31.4 6.6-23.9 18.7-47.2 12.8-24.7 28.4-46.5 0.7-1-0.4-0.3-22.6 14.1-29.5 18.3-1.4 0.8-2.5 3-2.3 4.7-6.2 12.7c-0.4 0.9-0.5 1.7-1 2.6z"/>
	<path id="Layer" class="s3" d="m511.8 238.4q0.6 4.8 0.7 14.1 0 3.6-0.8 5.9-0.8 2.3-0.6 3.8 0.6 3.6 2.6 7.8 0.1 0.2 0.1 0.5 0 0.2 0 0.4-0.1 0.2-0.3 0.4-0.1 0.1-0.4 0.2l-3.8 1.5q-0.3 0.1-0.5 0.3-0.2 0.1-0.4 0.3-0.2 0.2-0.3 0.5-0.1 0.2-0.2 0.5-0.6 2.2-1.5 4.1-0.4 0.7-2.4 3.6-1.9 2.7-3 6-1.4 4.1-6 2.6-5.7-2-11.8-4.3-0.4-0.2-0.7-0.2-0.4 0-0.7 0.1-0.3 0.1-0.6 0.3-0.3 0.2-0.5 0.5c-3.7 5.6-6 12.9-3.6 19.1q1.4 3.7 5.3 8 9.5 10.2 14.2 15.5 6.2 7.2 10.6 16.2 4.4 8.9 4.2 21.4 0 2.4-1 10.2-0.4 2.9-0.9 10.2-1 14.3-6.1 27.7c-3.8 9.9-11.2 20.9-14.8 30.4q-8.6 22.9-9.1 48-0.2 7.8-0.2 19.5 0 13-1 19.5c-1.3 8.6-3.6 16.3-6.4 25.4q-5.5 18-16.7 36.1-13.7 22.2-25.4 38.5-6.2 8.5-27.9 37.6-15.7 21-32.2 48.3-15.1 24.8-24.8 49.6-5 13-8.6 30.2c-0.9 4.2-1 7.8-1.7 11.4q-0.3 1.6-0.5-0.1-1.8-15.7-0.6-30.6 1.4-17.8 7.6-40.9 9.1-33.9 24.3-65.7 2.7-5.7 9.3-17.7 14.7-26.8 25.5-52.4c10.1-23.9 16-47.8 11.5-72.6q-1.3-7.3-4.7-19.7-2.4-8.9-1.3-18.4c2-16.1 10.4-30.2 24.2-38.8q5.2-3.3 7.8-5.2c10.3-7.5 18.4-18.1 19.4-31.2 1.1-15.4-5.7-30.3-15.4-42.2q-0.1-0.2-0.2-0.3 0-0.2-0.1-0.4 0-0.2 0.1-0.4 0-0.2 0.1-0.3c3.4-6.5 6.2-12.6 4.8-20.3q-0.1-0.5-0.5-0.5-0.1 0-0.3 0-0.2 0.1-0.3 0.4-1.1 3.6-1.3 3.9-7.7 14.7-12 21.1-14.8 22.1-22.5 35-19.1 32-33.6 66.1-3.7 8.7-6.1 17.1c-0.8 2.8-0.9 4.7 0.3 7.6q1.8 4.2 2 5.4 0.6 3.8 0.1 12.8-0.1 0.5-0.5 0.2-0.9-0.9-1-1.3-0.8-3.1-2-0.1-2.2 5.8-3.8 12.8c-0.9 4 0.2 5.4 1.5 9.7q0.7 2.4-0.7 0.4c-5.8-7.9-11.4-16.9-14-26.6q-0.8-2.7 0.2-6.8c1.2-5.4 3.7-14 5.2-20.9 4.2-18.9 8.4-37.8 14-56.3q3.1-10.5 12.3-34.8 2.6-6.9 19.1-51.1 1.6-4.2 3.6-14.2 2.6-13.3 12.5-22.4 2.6-2.4 14-10 1.7-1.2 7-5.4 4.3-3.4 6.5-5.9 9.3-10.5 10-24.9c0.2-4.8-1-12.9-1.2-16.9-0.5-7.6 2-17.9 8.9-22.4q16.2-10.6 34-1.6 8.6 4.4 11.1 6.6 4.3 3.8 8.4 6.5 1.5 0.9-0.4 1.1l-4.6 0.3q-0.6 0-0.5 0.6z"/>
	<path id="Layer" class="s4" d="m632.3 409.4q1.6-3.3-1.4-1.3-4.1 2.7-8.3 4.1-13.3 4.7-17 5.6-3.5 0.9-9 1.9-0.2 0.1-0.5 0-0.2 0-0.4-0.1-0.2-0.1-0.4-0.2-0.1-0.2-0.2-0.4-5.9-10.3-14.9-20.5-0.2-0.2-0.3-0.4 0-0.2-0.1-0.4 0-0.2 0.1-0.4 0-0.2 0.1-0.4 5.2-8.6 6.5-10.9 6.2-11 7.8-21.7 1.4-9.4-2.9-17-4.3-7.5-13.4-9.4-0.8-0.1-0.1-0.4 5.4-2.3 7.8-6c5.7-8.8 6.6-19.1 0-27.4q-0.3-0.3-0.6-0.4-0.3-0.2-0.6-0.1-0.4 0-0.6 0.2-0.3 0.1-0.5 0.4l-2.8 4.8q-0.1 0.2-0.2 0.3-0.2 0.1-0.4 0.1-0.2 0-0.4-0.1-0.1 0-0.2-0.2-3-4-5-8.2c-1.1-2.5-1.8-6-2.3-8.5q-0.7-3-2.7-0.6-6.8 8.2-8.9 19.6-2.7 15.2 5.8 27.5 0.5 0.7-0.3 0.5-1.2-0.4-2.5-1.2c-9.5-6.4-14.2-18.9-12.6-30.1q1.3-10.1 7.7-18.5 4.1-5.6 11.1-6.3 0.3 0 0.5-0.2 0.3-0.1 0.5-0.2 0.2-0.2 0.3-0.4 0.2-0.3 0.2-0.5 5.9-21.9 28.2-25.6 10.3-1.7 18.4 1.7c14.9 6.2 18 18.7 15.5 33.9q-0.1 0.9 1.2 3.3 1.7 3.3 3 5.4 0.2 0.2 0.2 0.4 0 0.2-0.1 0.4 0 0.2-0.2 0.4-0.1 0.1-0.3 0.2l-4 1.6q-1.3 0.5-1.6 1.9c-0.6 2.6-0.1 5-3.3 6.3q-0.1 0.1-0.2 0.1-0.1 0.1-0.2 0.2-0.1 0.1-0.2 0.2 0 0.1-0.1 0.3l-2.2 8.8q-0.1 0.4-0.3 0.7-0.3 0.3-0.7 0.4-0.4 0.2-0.9 0.2-0.5 0-0.9-0.2-1-0.4-7.2-2.9-3.8-1.5-6.2 2.1-2.3 3.4-2.7 6.4-2.5 18.9 10.3 31.3c3.6 3.4 10 7 14.2 10 6.9 5 13.9 13.6 13.5 22.4q-0.3 5.3-3.9 10.3-2.4 3.4-5.9 6.3-0.1 0.1-0.1 0.2-0.1 0.1-0.2 0.2 0 0.1-0.1 0.2 0 0.2 0 0.3-0.5 2.8 0 6.9 0.5 3.5 1.4 9.5 1 6 0.9 9.5-0.4 11.8-3.6 19.6-9.3 22.4-14.2 46.3-3.3 16.3-4.4 21.7-2.5 12-4.9 19.4-3.6 11.3-8.6 23-17.7 40.9-52.5 69.5-18.7 15.4-39.4 28.1-23.1 14.2-49.4 29.9-11.7 6.9-17.1 10.4-27.6 18.1-51.9 41.1-14.1 13.4-25 28.2-3.1 4.1-9.9 15.3 0 0 0 0.1 0 0 0 0-0.1 0-0.1-0.1 0 0 0 0l-0.2-0.5q-0.1-0.2 0-0.5 8.1-18.4 21.6-37.9 15-21.9 31.8-39.7 9.5-10.2 19.2-19.9 5.3-5.3 14.6-13.7 21.9-19.9 55.4-44.2 13.2-9.6 21.9-25.6 13.7-25.3 9.4-54-1.4-9.4-1.7-16c-0.8-15.7 6.4-30.3 17.5-41.1q11.2-10.9 24-16.8 8.7-4.1 13.6-7.1 17.2-10.9 17.5-31.8 0-0.2 0.1-0.4 0-0.3 0.1-0.5 0.1-0.2 0.3-0.3 0.2-0.2 0.3-0.3 14.9-10.4 28.1-23.5 2.1-2.2 3.3-4.6z"/>
	<path id="Layer" class="s4" d="m557.4 426.2q-0.1 0.1-0.1 0.3 0 0.1 0.1 0.3 0.1 0.1 0.2 0.2 0.1 0 0.3 0.1 1.4 0.1 3.6 0 30.5-2 58.7-12.8 0 0 0.2-0.1 0.1-0.1 0.3 0 0.1 0.1 0.1 0.1 0 0.1 0 0.1 0 0.1 0 0.1 0 0.1-0.1 0.1-17.9 13.4-38.5 22.9-17.4 8.1-32.6 11.9-5.1 1.2-8.6 1.3-2.9 0.1-4.7-2.5-3-4.3-1.7-10.6 3.5-16.1 10.8-35.5 2.9-7.7 8.2-21 2.7-6.7 4.8-12.5 1.4-4 4.4-12.8 0.9-2.5 2.3-4.9c4.5-7.3 13.9-7.9 19.4-1.5 5.4 6.3 3.2 15.9 0.2 23.1q-3.7 9.1-6.8 14.9-8.5 16.4-20.5 38.8z"/>
	<path id="Layer" class="s4" d="m585.9 614.4q-0.1 1.3-1 5.4-0.8 4-1 5.5-5.5 36.9-0.8 73.6 5.8 44.1 27.2 83.1 8.7 15.8 20.7 28.2 0.1 0.1 0 0.1l-0.1 0.3q-0.1 0.2-0.3 0c-5.5-4.7-11.8-9.5-16.4-14.2-11.2-11.4-20.8-25-28.5-39q-26.6-48.4-33.1-104.2 0-0.3 0-0.5 0-0.2 0.1-0.5 0.1-0.2 0.3-0.4 0.1-0.2 0.3-0.3c10-8.2 18.6-17.3 25.9-28q6.2-9 6.4-9.2 0.3-0.4 0.3 0.1z"/>
	<path id="Layer" class="s3" d="m478.9 712.2c0.5-0.9 0.6-1.7 1-2.6q3.9-8 6.2-12.7 1.1-2.2 2.5-3 6.9-4.2 29.5-18.3 1.1-0.7 0.4 0.3-15.6 21.8-28.4 46.5-12.1 23.3-18.7 47.2-4.7 17-4.6 31.4 0 0.2 0.1 9.4 0 0-0.1 0.1 0 0 0 0-0.1 0-0.1 0-0.1 0-0.1-0.1-3.4-14.3-3.3-28.1 0-13.2 1.3-21.7 3.3-21.4 11.9-42.7 1.6-4.1 2.5-5.7z"/>
</svg>