<svg width="49" height="48" viewBox="0 0 49 48" fill="none" xmlns="http://www.w3.org/2000/svg">
<path d="M12.6665 12C14.8756 12 16.6665 10.2091 16.6665 8C16.6665 5.79086 14.8756 4 12.6665 4C10.4574 4 8.6665 5.79086 8.6665 8C8.6665 10.2091 10.4574 12 12.6665 12Z" fill="black"/>
<path d="M18.6665 14H6.6665C6.13607 14 5.62736 14.2107 5.25229 14.5858C4.87722 14.9609 4.6665 15.4696 4.6665 16V30H8.6665V44H16.6665V30H20.6665V16C20.6665 15.4696 20.4558 14.9609 20.0807 14.5858C19.7056 14.2107 19.1969 14 18.6665 14Z" fill="black"/>
<path d="M34.6665 12C36.8756 12 38.6665 10.2091 38.6665 8C38.6665 5.79086 36.8756 4 34.6665 4C32.4574 4 30.6665 5.79086 30.6665 8C30.6665 10.2091 32.4574 12 34.6665 12Z" fill="black"/>
<path d="M41.0865 15.4599C40.9655 15.0273 40.7024 14.648 40.3396 14.3832C39.9768 14.1183 39.5354 13.9833 39.0865 13.9999H30.0865C29.6376 13.9833 29.1962 14.1183 28.8334 14.3832C28.4706 14.648 28.2075 15.0273 28.0865 15.4599L24.6665 27.9999H28.6665L26.6665 35.9999H30.6665V43.9999H38.6665V35.9999H42.6665L40.6665 27.9999H44.6665L41.0865 15.4599Z" fill="black"/>
</svg>
