<svg width="32" height="33" viewBox="0 0 32 33" fill="none" xmlns="http://www.w3.org/2000/svg">
<path d="M16.0001 19.0557C18.9414 19.0557 21.3334 16.6637 21.3334 13.7223C21.3334 10.781 18.9414 8.389 16.0001 8.389C13.0587 8.389 10.6667 10.781 10.6667 13.7223C10.6667 16.6637 13.0587 19.0557 16.0001 19.0557ZM16.0001 11.0557C17.4707 11.0557 18.6667 12.2517 18.6667 13.7223C18.6667 15.193 17.4707 16.389 16.0001 16.389C14.5294 16.389 13.3334 15.193 13.3334 13.7223C13.3334 12.2517 14.5294 11.0557 16.0001 11.0557Z" fill="black"/>
<path d="M15.2268 29.4743C15.4524 29.6355 15.7228 29.7221 16.0001 29.7221C16.2774 29.7221 16.5478 29.6355 16.7734 29.4743C17.1788 29.1877 26.7054 22.309 26.6668 13.7223C26.6668 7.841 21.8814 3.05566 16.0001 3.05566C10.1188 3.05566 5.33343 7.841 5.33343 13.7157C5.29476 22.309 14.8214 29.1877 15.2268 29.4743ZM16.0001 5.72233C20.4121 5.72233 24.0001 9.31033 24.0001 13.729C24.0281 19.6463 18.1494 24.9597 16.0001 26.7023C13.8521 24.9583 7.9721 19.6437 8.0001 13.7223C8.0001 9.31033 11.5881 5.72233 16.0001 5.72233Z" fill="black"/>
</svg>
