<svg width="48" height="49" viewBox="0 0 48 49" fill="none" xmlns="http://www.w3.org/2000/svg">
<path d="M32 4.5H16C9.382 4.5 4 9.882 4 16.5V42.5C4 43.0304 4.21071 43.5391 4.58579 43.9142C4.96086 44.2893 5.46957 44.5 6 44.5H32C38.618 44.5 44 39.118 44 32.5V16.5C44 9.882 38.618 4.5 32 4.5ZM40 32.5C40 36.912 36.412 40.5 32 40.5H8V16.5C8 12.088 11.588 8.5 16 8.5H32C36.412 8.5 40 12.088 40 16.5V32.5Z" fill="white"/>
<path d="M22.0001 27.6719L17.4141 23.0859L14.5861 25.9139L22.0001 33.3279L34.4141 20.9139L31.5861 18.0859L22.0001 27.6719Z" fill="white"/>
</svg>
