<svg width="32" height="33" viewBox="0 0 32 33" fill="none" xmlns="http://www.w3.org/2000/svg">
<path d="M23.6095 16.779C23.4857 16.655 23.3388 16.5567 23.177 16.4896C23.0153 16.4225 22.8419 16.388 22.6668 16.388C22.4917 16.388 22.3183 16.4225 22.1565 16.4896C21.9948 16.5567 21.8478 16.655 21.7241 16.779L19.5988 18.9043C18.6135 18.611 16.7748 17.9443 15.6095 16.779C14.4441 15.6136 13.7775 13.775 13.4841 12.7896L15.6095 10.6643C15.7334 10.5406 15.8317 10.3936 15.8988 10.2319C15.9659 10.0701 16.0004 9.89673 16.0004 9.72162C16.0004 9.54651 15.9659 9.37312 15.8988 9.21136C15.8317 9.04961 15.7334 8.90267 15.6095 8.77896L10.2761 3.44562C10.1524 3.32169 10.0055 3.22338 9.84371 3.1563C9.68196 3.08922 9.50856 3.05469 9.33345 3.05469C9.15834 3.05469 8.98495 3.08922 8.82319 3.1563C8.66144 3.22338 8.5145 3.32169 8.39079 3.44562L4.77479 7.06162C4.26812 7.56829 3.98279 8.26429 3.99345 8.97496C4.02412 10.8736 4.52679 17.4683 9.72412 22.6656C14.9215 27.863 21.5161 28.3643 23.4161 28.3963H23.4535C24.1575 28.3963 24.8228 28.119 25.3268 27.615L28.9428 23.999C29.0667 23.8752 29.165 23.7283 29.2321 23.5665C29.2992 23.4048 29.3337 23.2314 29.3337 23.0563C29.3337 22.8812 29.2992 22.7078 29.2321 22.546C29.165 22.3843 29.0667 22.2373 28.9428 22.1136L23.6095 16.779ZM23.4401 25.7283C21.7761 25.7003 16.0828 25.2536 11.6095 20.779C7.12145 16.291 6.68679 10.5776 6.66012 8.94696L9.33345 6.27362L12.7815 9.72162L11.0575 11.4456C10.9007 11.6022 10.7855 11.7954 10.7222 12.0077C10.6589 12.22 10.6495 12.4448 10.6948 12.6616C10.7268 12.815 11.5095 16.451 13.7228 18.6643C15.9361 20.8776 19.5721 21.6603 19.7255 21.6923C19.9422 21.7389 20.1672 21.7302 20.3796 21.6671C20.5921 21.6039 20.7853 21.4884 20.9415 21.331L22.6668 19.607L26.1148 23.055L23.4401 25.7283Z" fill="black"/>
</svg>
