<svg width="48" height="49" viewBox="0 0 48 49" fill="none" xmlns="http://www.w3.org/2000/svg">
<path d="M24.0003 4.51381C21.3737 4.50411 18.7712 5.01565 16.3437 6.01879C13.9162 7.02193 11.7118 8.49675 9.85827 10.3578C2.06027 18.1558 2.06027 30.8438 9.85827 38.6438C11.7118 40.505 13.9161 41.9801 16.3436 42.9836C18.7711 43.9871 21.3735 44.499 24.0003 44.4898C26.627 44.499 29.2294 43.9871 31.6569 42.9836C34.0844 41.9801 36.2888 40.505 38.1423 38.6438C45.9403 30.8458 45.9403 18.1578 38.1423 10.3578C36.2887 8.49675 34.0844 7.02193 31.6568 6.01879C29.2293 5.01565 26.6269 4.50411 24.0003 4.51381ZM35.3143 35.8138C33.831 37.3022 32.0674 38.4816 30.1254 39.2839C28.1833 40.0862 26.1015 40.4954 24.0003 40.4878C19.7183 40.4878 15.7003 38.8278 12.6863 35.8138C6.44827 29.5758 6.44827 19.4238 12.6863 13.1858C14.1695 11.6976 15.9332 10.5184 17.8753 9.71649C19.8173 8.91454 21.8992 8.50575 24.0003 8.51381C28.2823 8.51381 32.3003 10.1718 35.3143 13.1858C41.5523 19.4238 41.5523 29.5758 35.3143 35.8138Z" fill="white"/>
<path d="M19.3223 16.9937L16.4943 19.8217L22.9223 26.2497L18.6723 30.4997H30.0003V19.1737L25.7503 23.4217L19.3223 16.9937Z" fill="white"/>
</svg>
