<svg width="48" height="49" viewBox="0 0 48 49" fill="none" xmlns="http://www.w3.org/2000/svg">
<path d="M41.8402 5.26C39.5948 4.75713 37.3011 4.50227 35.0002 4.5C32.8271 4.36202 30.6483 4.65499 28.5889 5.36205C26.5295 6.06912 24.6302 7.17632 23.0002 8.62C20.8535 10.7667 18.7268 12.9067 16.6202 15.04C14.2002 14.78 8.46016 14.64 4.62016 18.52C4.24766 18.8947 4.03857 19.4016 4.03857 19.93C4.03857 20.4584 4.24766 20.9653 4.62016 21.34L27.2202 43.98C27.5949 44.3525 28.1018 44.5616 28.6302 44.5616C29.1585 44.5616 29.6654 44.3525 30.0402 43.98C33.9402 39.98 33.8202 34.34 33.5802 31.98L40.0002 25.58C46.3802 19.2 43.4802 7.22 43.3602 6.72C43.2678 6.35927 43.0766 6.03148 42.8081 5.77353C42.5395 5.51559 42.2043 5.33773 41.8402 5.26ZM37.1202 22.76L30.0002 29.84C29.7696 30.0728 29.5997 30.3588 29.5056 30.6726C29.4114 30.9865 29.3958 31.3187 29.4602 31.64C29.8922 34.3156 29.5162 37.0593 28.3802 39.52L9.04016 20.14C11.5399 18.9895 14.3342 18.6402 17.0402 19.14C17.3603 19.1817 17.6858 19.1452 17.9888 19.0338C18.2918 18.9223 18.5633 18.7392 18.7802 18.5C18.7802 18.5 21.5802 15.6 25.8002 11.38C28.395 9.29623 31.6803 8.26779 35.0002 8.5C36.5617 8.50773 38.1201 8.6415 39.6602 8.9C40.1402 11.76 40.9002 18.98 37.1202 22.76Z" fill="black"/>
<path d="M31.4601 21.1001C33.6692 21.1001 35.4601 19.3092 35.4601 17.1001C35.4601 14.891 33.6692 13.1001 31.4601 13.1001C29.2509 13.1001 27.4601 14.891 27.4601 17.1001C27.4601 19.3092 29.2509 21.1001 31.4601 21.1001Z" fill="black"/>
<path d="M10.0001 32.5C6.00012 34.5 6.00012 42.5 6.00012 42.5C9.70226 42.3944 13.2464 40.9767 16.0001 38.5L10.0001 32.5Z" fill="black"/>
</svg>
