<svg width="28" height="40" viewBox="0 0 28 40" fill="none" xmlns="http://www.w3.org/2000/svg">
<path d="M14 40C21.718 40 28 33.718 28 26C28 18.282 21.718 12 14 12C6.28 12 0 18.282 0 26C0 33.718 6.28 40 14 40ZM14 16C19.514 16 24 20.486 24 26C24 31.514 19.514 36 14 36C8.486 36 4 31.514 4 26C4 20.486 8.486 16 14 16ZM12 0H4V11.036C6.39336 9.43445 9.13755 8.4335 12 8.118V0ZM24 0H16V8.118C18.8624 8.4335 21.6066 9.43445 24 11.036V0Z" fill="#C0C0C0"/>
<path d="M10.038 27.622L9.10197 33.074L14 30.5L18.898 33.074L17.962 27.622L21.926 23.758L16.45 22.962L14 18L11.55 22.962L6.07397 23.758L10.038 27.622Z" fill="#C0C0C0"/>
</svg>
