<svg width="48" height="49" viewBox="0 0 48 49" fill="none" xmlns="http://www.w3.org/2000/svg">
<path d="M29.688 40.5H13C10.242 40.5 8 38.258 8 35.5C8 32.742 10.242 30.5 13 30.5H27C30.86 30.5 34 27.36 34 23.5C34 19.64 30.86 16.5 27 16.5H17.278C16.5435 17.9398 15.6339 19.2833 14.57 20.5H27C28.654 20.5 30 21.846 30 23.5C30 25.154 28.654 26.5 27 26.5H13C8.038 26.5 4 30.538 4 35.5C4 40.462 8.038 44.5 13 44.5H32.186C31.2046 43.2655 30.3666 41.9236 29.688 40.5ZM10 4.5C6.692 4.5 4 7.192 4 10.5C4 16.876 10 20.5 10 20.5C10 20.5 16 16.874 16 10.5C16 7.192 13.308 4.5 10 4.5ZM10 13.5C9.6059 13.4999 9.21569 13.4221 8.85164 13.2712C8.4876 13.1202 8.15684 12.8991 7.87827 12.6203C7.59969 12.3416 7.37875 12.0107 7.22806 11.6465C7.07736 11.2824 6.99987 10.8921 7 10.498C7.00013 10.1039 7.07788 9.71369 7.22882 9.34964C7.37976 8.98559 7.60092 8.65484 7.87968 8.37627C8.15844 8.09769 8.48934 7.87675 8.85349 7.72605C9.21764 7.57536 9.6079 7.49787 10.002 7.498C10.7979 7.49827 11.5611 7.8147 12.1237 8.37768C12.6863 8.94066 13.0023 9.70409 13.002 10.5C13.0017 11.2959 12.6853 12.0591 12.1223 12.6217C11.5593 13.1843 10.7959 13.5003 10 13.5Z" fill="white"/>
<path d="M38 28.5C34.692 28.5 32 31.192 32 34.5C32 40.876 38 44.5 38 44.5C38 44.5 44 40.874 44 34.5C44 31.192 41.308 28.5 38 28.5ZM38 37.5C37.6059 37.4999 37.2157 37.4221 36.8516 37.2712C36.4876 37.1202 36.1568 36.8991 35.8783 36.6203C35.5997 36.3416 35.3787 36.0107 35.2281 35.6465C35.0774 35.2824 34.9999 34.8921 35 34.498C35.0001 34.1039 35.0779 33.7137 35.2288 33.3496C35.3798 32.9856 35.6009 32.6548 35.8797 32.3763C36.1584 32.0977 36.4893 31.8767 36.8535 31.7261C37.2176 31.5754 37.6079 31.4979 38.002 31.498C38.7979 31.4983 39.5611 31.8147 40.1237 32.3777C40.6863 32.9407 41.0023 33.7041 41.002 34.5C41.0017 35.2959 40.6853 36.0591 40.1223 36.6217C39.5593 37.1843 38.7959 37.5003 38 37.5Z" fill="white"/>
</svg>
