<svg width="49" height="48" viewBox="0 0 49 48" fill="none" xmlns="http://www.w3.org/2000/svg">
<path d="M38.333 16.0002H34.333V22.0002H28.333V26.0002H34.333V32.0002H38.333V26.0002H44.333V22.0002H38.333V16.0002ZM8.33301 16.0002C8.30838 17.0575 8.49847 18.1088 8.89179 19.0905C9.28511 20.0723 9.87348 20.964 10.6213 21.7119C11.3691 22.4597 12.2609 23.0481 13.2426 23.4414C14.2244 23.8347 15.2757 24.0248 16.333 24.0002C17.3903 24.0248 18.4416 23.8347 19.4234 23.4414C20.4051 23.0481 21.2969 22.4597 22.0447 21.7119C22.7925 20.964 23.3809 20.0723 23.7742 19.0905C24.1675 18.1088 24.3576 17.0575 24.333 16.0002C24.3576 14.9429 24.1675 13.8915 23.7742 12.9098C23.3809 11.9281 22.7925 11.0363 22.0447 10.2885C21.2969 9.54064 20.4051 8.95227 19.4234 8.55895C18.4416 8.16563 17.3903 7.97554 16.333 8.00017C15.2757 7.97554 14.2244 8.16563 13.2426 8.55895C12.2609 8.95227 11.3691 9.54064 10.6213 10.2885C9.87348 11.0363 9.28511 11.9281 8.89179 12.9098C8.49847 13.8915 8.30838 14.9429 8.33301 16.0002ZM20.333 16.0002C20.3587 16.5323 20.2729 17.0639 20.081 17.5608C19.889 18.0578 19.5953 18.5091 19.2186 18.8858C18.8419 19.2625 18.3906 19.5562 17.8937 19.7481C17.3967 19.94 16.8651 20.0259 16.333 20.0002C15.8009 20.0259 15.2693 19.94 14.7724 19.7481C14.2754 19.5562 13.8241 19.2625 13.4474 18.8858C13.0707 18.5091 12.777 18.0578 12.5851 17.5608C12.3931 17.0639 12.3073 16.5323 12.333 16.0002C12.3073 15.4681 12.3931 14.9365 12.5851 14.4395C12.777 13.9426 13.0707 13.4913 13.4474 13.1146C13.8241 12.7379 14.2754 12.4441 14.7724 12.2522C15.2693 12.0603 15.8009 11.9744 16.333 12.0002C16.8651 11.9744 17.3967 12.0603 17.8937 12.2522C18.3906 12.4441 18.8419 12.7379 19.2186 13.1146C19.5953 13.4913 19.889 13.9426 20.081 14.4395C20.2729 14.9365 20.3587 15.4681 20.333 16.0002ZM8.33301 36.0002C8.33301 34.4089 8.96515 32.8827 10.0904 31.7575C11.2156 30.6323 12.7417 30.0002 14.333 30.0002H18.333C19.9243 30.0002 21.4504 30.6323 22.5756 31.7575C23.7009 32.8827 24.333 34.4089 24.333 36.0002V38.0002H28.333V36.0002C28.333 34.6869 28.0744 33.3866 27.5718 32.1733C27.0693 30.9601 26.3327 29.8577 25.4041 28.9291C24.4755 28.0005 23.3731 27.2639 22.1598 26.7614C20.9466 26.2588 19.6462 26.0002 18.333 26.0002H14.333C11.6808 26.0002 9.1373 27.0537 7.26194 28.9291C5.38658 30.8045 4.33301 33.348 4.33301 36.0002V38.0002H8.33301V36.0002Z" fill="black"/>
</svg>
