<svg width="49" height="48" viewBox="0 0 49 48" fill="none" xmlns="http://www.w3.org/2000/svg">
<path d="M16.8333 24C21.3933 24 24.8333 20.56 24.8333 16C24.8333 11.44 21.3933 7.99997 16.8333 7.99997C12.2733 7.99997 8.83334 11.44 8.83334 16C8.83334 20.56 12.2733 24 16.8333 24ZM16.8333 12C19.1893 12 20.8333 13.644 20.8333 16C20.8333 18.356 19.1893 20 16.8333 20C14.4773 20 12.8333 18.356 12.8333 16C12.8333 13.644 14.4773 12 16.8333 12ZM18.8333 26H14.8333C9.31934 26 4.83334 30.486 4.83334 36V38H8.83334V36C8.83334 32.692 11.5253 30 14.8333 30H18.8333C22.1413 30 24.8333 32.692 24.8333 36V38H28.8333V36C28.8333 30.486 24.3473 26 18.8333 26ZM37.5613 5.27197L34.7333 8.09997C37.3753 10.746 38.8333 14.262 38.8333 18C38.8333 21.738 37.3753 25.254 34.7333 27.9L37.5613 30.728C40.9613 27.326 42.8333 22.806 42.8333 18C42.8333 13.194 40.9613 8.67397 37.5613 5.27197Z" fill="white"/>
<path d="M31.9033 10.9282L29.0753 13.7602C30.2093 14.8902 30.8333 16.3962 30.8333 18.0002C30.8333 19.6042 30.2093 21.1102 29.0753 22.2402L31.9033 25.0722C33.7913 23.1842 34.8333 20.6742 34.8333 18.0002C34.8333 15.3262 33.7913 12.8162 31.9033 10.9282Z" fill="white"/>
</svg>
