<svg width="49" height="48" viewBox="0 0 49 48" fill="none" xmlns="http://www.w3.org/2000/svg">
<path d="M40.7467 16.5802L32.1667 25.1602L29.5667 22.5802L26.7467 25.4202L32.1467 30.8202L43.5867 19.4202L40.7467 16.5802ZM8.16669 16.0002C8.14206 17.0575 8.33215 18.1088 8.72547 19.0905C9.11879 20.0723 9.70716 20.964 10.455 21.7119C11.2028 22.4597 12.0946 23.0481 13.0763 23.4414C14.0581 23.8347 15.1094 24.0248 16.1667 24.0002C17.224 24.0248 18.2753 23.8347 19.2571 23.4414C20.2388 23.0481 21.1305 22.4597 21.8784 21.7119C22.6262 20.964 23.2146 20.0723 23.6079 19.0905C24.0012 18.1088 24.1913 17.0575 24.1667 16.0002C24.1913 14.9429 24.0012 13.8915 23.6079 12.9098C23.2146 11.9281 22.6262 11.0363 21.8784 10.2885C21.1305 9.54064 20.2388 8.95227 19.2571 8.55895C18.2753 8.16563 17.224 7.97554 16.1667 8.00017C15.1094 7.97554 14.0581 8.16563 13.0763 8.55895C12.0946 8.95227 11.2028 9.54064 10.455 10.2885C9.70716 11.0363 9.11879 11.9281 8.72547 12.9098C8.33215 13.8915 8.14206 14.9429 8.16669 16.0002ZM20.1667 16.0002C20.1924 16.5323 20.1066 17.0639 19.9146 17.5608C19.7227 18.0578 19.429 18.5091 19.0523 18.8858C18.6756 19.2625 18.2243 19.5562 17.7273 19.7481C17.2304 19.94 16.6988 20.0259 16.1667 20.0002C15.6346 20.0259 15.103 19.94 14.606 19.7481C14.1091 19.5562 13.6578 19.2625 13.2811 18.8858C12.9044 18.5091 12.6107 18.0578 12.4187 17.5608C12.2268 17.0639 12.141 16.5323 12.1667 16.0002C12.141 15.4681 12.2268 14.9365 12.4187 14.4395C12.6107 13.9426 12.9044 13.4913 13.2811 13.1146C13.6578 12.7379 14.1091 12.4441 14.606 12.2522C15.103 12.0603 15.6346 11.9744 16.1667 12.0002C16.6988 11.9744 17.2304 12.0603 17.7273 12.2522C18.2243 12.4441 18.6756 12.7379 19.0523 13.1146C19.429 13.4913 19.7227 13.9426 19.9146 14.4395C20.1066 14.9365 20.1924 15.4681 20.1667 16.0002ZM8.16669 36.0002C8.16669 34.4089 8.79883 32.8827 9.92405 31.7575C11.0493 30.6323 12.5754 30.0002 14.1667 30.0002H18.1667C19.758 30.0002 21.2841 30.6323 22.4093 31.7575C23.5345 32.8827 24.1667 34.4089 24.1667 36.0002V38.0002H28.1667V36.0002C28.1667 34.6869 27.908 33.3866 27.4055 32.1733C26.9029 30.9601 26.1663 29.8577 25.2378 28.9291C24.3092 28.0005 23.2068 27.2639 21.9935 26.7614C20.7803 26.2588 19.4799 26.0002 18.1667 26.0002H14.1667C11.5145 26.0002 8.97098 27.0537 7.09562 28.9291C5.22026 30.8045 4.16669 33.348 4.16669 36.0002V38.0002H8.16669V36.0002Z" fill="white"/>
</svg>
