<svg width="24" height="24" viewBox="0 0 24 24" fill="none" xmlns="http://www.w3.org/2000/svg">
<path d="M17.6709 14.307C16.1839 12.819 14.1699 12 11.9999 12C9.82992 12 7.81592 12.819 6.32892 14.307L7.74292 15.721C8.85292 14.611 10.3639 13.999 11.9999 13.999C13.6359 14 15.1469 14.611 16.2569 15.721L17.6709 14.307Z" fill="black"/>
<path d="M20.437 11.2921C15.865 6.71905 8.13596 6.71905 3.56396 11.2921L4.97797 12.7061C8.78497 8.89906 15.216 8.89906 19.023 12.7061L20.437 11.2921Z" fill="black"/>
<path d="M11.9999 20C13.1045 20 13.9999 19.1046 13.9999 18C13.9999 16.8954 13.1045 16 11.9999 16C10.8954 16 9.99994 16.8954 9.99994 18C9.99994 19.1046 10.8954 20 11.9999 20Z" fill="black"/>
</svg>
